<svg width="140" height="140" viewBox="0 0 140 140" fill="none" xmlns="http://www.w3.org/2000/svg">
<g clip-path="url(#clip0_153_45304)">
<path d="M6.5625 0H0V6.5625H6.5625V0Z" fill="#FFDA54"/>
<path d="M10.9375 0H4.375V6.5625H10.9375V0Z" fill="#FFDA54"/>
<path d="M15.3125 0H8.75V6.5625H15.3125V0Z" fill="#FFDA54"/>
<path d="M19.6875 0H13.125V6.5625H19.6875V0Z" fill="#FFDA54"/>
<path d="M24.0625 0H17.5V6.5625H24.0625V0Z" fill="#FFDA54"/>
<path d="M28.4375 0H21.875V6.5625H28.4375V0Z" fill="#FFDA54"/>
<path d="M32.8125 0H26.25V6.5625H32.8125V0Z" fill="#FFDA54"/>
<path d="M37.1875 0H30.625V6.5625H37.1875V0Z" fill="#FFDA54"/>
<path d="M41.5625 0H35V6.5625H41.5625V0Z" fill="#FFDA54"/>
<path d="M45.9375 0H39.375V6.5625H45.9375V0Z" fill="#FFDA54"/>
<path d="M50.3125 0H43.75V6.5625H50.3125V0Z" fill="#FFDA54"/>
<path d="M54.6875 0H48.125V6.5625H54.6875V0Z" fill="#FFDA54"/>
<path d="M59.0625 0H52.5V6.5625H59.0625V0Z" fill="#FFDA54"/>
<path d="M63.4375 0H56.875V6.5625H63.4375V0Z" fill="#FFDA54"/>
<path d="M67.8125 0H61.25V6.5625H67.8125V0Z" fill="#FFDA54"/>
<path d="M72.1875 0H65.625V6.5625H72.1875V0Z" fill="#FFDA54"/>
<path d="M76.5625 0H70V6.5625H76.5625V0Z" fill="#FFDA54"/>
<path d="M80.9375 0H74.375V6.5625H80.9375V0Z" fill="#FFDA54"/>
<path d="M85.3125 0H78.75V6.5625H85.3125V0Z" fill="#FFDA54"/>
<path d="M89.6875 0H83.125V6.5625H89.6875V0Z" fill="#FFDA54"/>
<path d="M94.0625 0H87.5V6.5625H94.0625V0Z" fill="#FFDA54"/>
<path d="M98.4375 0H91.875V6.5625H98.4375V0Z" fill="#FFDA54"/>
<path d="M102.812 0H96.25V6.5625H102.812V0Z" fill="#FFDA54"/>
<path d="M107.188 0H100.625V6.5625H107.188V0Z" fill="#FFDA54"/>
<path d="M111.562 0H105V6.5625H111.562V0Z" fill="#FFDA54"/>
<path d="M115.938 0H109.375V6.5625H115.938V0Z" fill="#FFDA54"/>
<path d="M120.312 0H113.75V6.5625H120.312V0Z" fill="#FFDA54"/>
<path d="M124.688 0H118.125V6.5625H124.688V0Z" fill="#FFDA54"/>
<path d="M129.062 0H122.5V6.5625H129.062V0Z" fill="#FFDA54"/>
<path d="M133.438 0H126.875V6.5625H133.438V0Z" fill="#FFDA54"/>
<path d="M137.812 0H131.25V6.5625H137.812V0Z" fill="#FFDA54"/>
<path d="M142.188 0H135.625V6.5625H142.188V0Z" fill="#FFDA54"/>
<path d="M6.5625 4.375H0V10.9375H6.5625V4.375Z" fill="#FFDA54"/>
<path d="M10.9375 4.375H4.375V10.9375H10.9375V4.375Z" fill="#FFDA54"/>
<path d="M15.3125 4.375H8.75V10.9375H15.3125V4.375Z" fill="#FFDA54"/>
<path d="M19.6875 4.375H13.125V10.9375H19.6875V4.375Z" fill="#FFDA54"/>
<path d="M24.0625 4.375H17.5V10.9375H24.0625V4.375Z" fill="#FFDA54"/>
<path d="M28.4375 4.375H21.875V10.9375H28.4375V4.375Z" fill="#FFDA54"/>
<path d="M32.8125 4.375H26.25V10.9375H32.8125V4.375Z" fill="#FFDA54"/>
<path d="M37.1875 4.375H30.625V10.9375H37.1875V4.375Z" fill="#FFDA54"/>
<path d="M41.5625 4.375H35V10.9375H41.5625V4.375Z" fill="#FFDA54"/>
<path d="M45.9375 4.375H39.375V10.9375H45.9375V4.375Z" fill="#FFDA54"/>
<path d="M50.3125 4.375H43.75V10.9375H50.3125V4.375Z" fill="#FFDA54"/>
<path d="M54.6875 4.375H48.125V10.9375H54.6875V4.375Z" fill="#FFDA54"/>
<path d="M59.0625 4.375H52.5V10.9375H59.0625V4.375Z" fill="#FFDA54"/>
<path d="M63.4375 4.375H56.875V10.9375H63.4375V4.375Z" fill="#FFDA54"/>
<path d="M67.8125 4.375H61.25V10.9375H67.8125V4.375Z" fill="#FFDA54"/>
<path d="M72.1875 4.375H65.625V10.9375H72.1875V4.375Z" fill="#FFDA54"/>
<path d="M76.5625 4.375H70V10.9375H76.5625V4.375Z" fill="#FFDA54"/>
<path d="M80.9375 4.375H74.375V10.9375H80.9375V4.375Z" fill="#FFDA54"/>
<path d="M85.3125 4.375H78.75V10.9375H85.3125V4.375Z" fill="#FFDA54"/>
<path d="M89.6875 4.375H83.125V10.9375H89.6875V4.375Z" fill="#FFDA54"/>
<path d="M94.0625 4.375H87.5V10.9375H94.0625V4.375Z" fill="#FFDA54"/>
<path d="M98.4375 4.375H91.875V10.9375H98.4375V4.375Z" fill="#FFDA54"/>
<path d="M102.812 4.375H96.25V10.9375H102.812V4.375Z" fill="#FFDA54"/>
<path d="M107.188 4.375H100.625V10.9375H107.188V4.375Z" fill="#FFDA54"/>
<path d="M111.562 4.375H105V10.9375H111.562V4.375Z" fill="#FFDA54"/>
<path d="M115.938 4.375H109.375V10.9375H115.938V4.375Z" fill="#FFDA54"/>
<path d="M120.312 4.375H113.75V10.9375H120.312V4.375Z" fill="#FFDA54"/>
<path d="M124.688 4.375H118.125V10.9375H124.688V4.375Z" fill="#FFDA54"/>
<path d="M129.062 4.375H122.5V10.9375H129.062V4.375Z" fill="#FFDA54"/>
<path d="M133.438 4.375H126.875V10.9375H133.438V4.375Z" fill="#FFDA54"/>
<path d="M137.812 4.375H131.25V10.9375H137.812V4.375Z" fill="#FFDA54"/>
<path d="M142.188 4.375H135.625V10.9375H142.188V4.375Z" fill="#FFDA54"/>
<path d="M6.5625 8.75H0V15.3125H6.5625V8.75Z" fill="#FFDA54"/>
<path d="M10.9375 8.75H4.375V15.3125H10.9375V8.75Z" fill="#FFDA54"/>
<path d="M15.3125 8.75H8.75V15.3125H15.3125V8.75Z" fill="#FFDA54"/>
<path d="M19.6875 8.75H13.125V15.3125H19.6875V8.75Z" fill="#FFDA54"/>
<path d="M24.0625 8.75H17.5V15.3125H24.0625V8.75Z" fill="#FFDA54"/>
<path d="M28.4375 8.75H21.875V15.3125H28.4375V8.75Z" fill="#FFDA54"/>
<path d="M32.8125 8.75H26.25V15.3125H32.8125V8.75Z" fill="#FFDA54"/>
<path d="M37.1875 8.75H30.625V15.3125H37.1875V8.75Z" fill="#FFDA54"/>
<path d="M41.5625 8.75H35V15.3125H41.5625V8.75Z" fill="#FFDA54"/>
<path d="M45.9375 8.75H39.375V15.3125H45.9375V8.75Z" fill="#FFDA54"/>
<path d="M50.3125 8.75H43.75V15.3125H50.3125V8.75Z" fill="#FFDA54"/>
<path d="M54.6875 8.75H48.125V15.3125H54.6875V8.75Z" fill="#FFDA54"/>
<path d="M59.0625 8.75H52.5V15.3125H59.0625V8.75Z" fill="#FFDA54"/>
<path d="M63.4375 8.75H56.875V15.3125H63.4375V8.75Z" fill="#FFDA54"/>
<path d="M67.8125 8.75H61.25V15.3125H67.8125V8.75Z" fill="#1F1407"/>
<path d="M72.1875 8.75H65.625V15.3125H72.1875V8.75Z" fill="#1F1407"/>
<path d="M76.5625 8.75H70V15.3125H76.5625V8.75Z" fill="#1F1407"/>
<path d="M80.9375 8.75H74.375V15.3125H80.9375V8.75Z" fill="#1F1407"/>
<path d="M85.3125 8.75H78.75V15.3125H85.3125V8.75Z" fill="#1F1407"/>
<path d="M89.6875 8.75H83.125V15.3125H89.6875V8.75Z" fill="#FFDA54"/>
<path d="M94.0625 8.75H87.5V15.3125H94.0625V8.75Z" fill="#FFDA54"/>
<path d="M98.4375 8.75H91.875V15.3125H98.4375V8.75Z" fill="#FFDA54"/>
<path d="M102.812 8.75H96.25V15.3125H102.812V8.75Z" fill="#FFDA54"/>
<path d="M107.188 8.75H100.625V15.3125H107.188V8.75Z" fill="#FFDA54"/>
<path d="M111.562 8.75H105V15.3125H111.562V8.75Z" fill="#FFDA54"/>
<path d="M115.938 8.75H109.375V15.3125H115.938V8.75Z" fill="#FFDA54"/>
<path d="M120.312 8.75H113.75V15.3125H120.312V8.75Z" fill="#FFDA54"/>
<path d="M124.688 8.75H118.125V15.3125H124.688V8.75Z" fill="#FFDA54"/>
<path d="M129.062 8.75H122.5V15.3125H129.062V8.75Z" fill="#FFDA54"/>
<path d="M133.438 8.75H126.875V15.3125H133.438V8.75Z" fill="#FFDA54"/>
<path d="M137.812 8.75H131.25V15.3125H137.812V8.75Z" fill="#FFDA54"/>
<path d="M142.188 8.75H135.625V15.3125H142.188V8.75Z" fill="#FFDA54"/>
<path d="M6.5625 13.125H0V19.6875H6.5625V13.125Z" fill="#FFDA54"/>
<path d="M10.9375 13.125H4.375V19.6875H10.9375V13.125Z" fill="#FFDA54"/>
<path d="M15.3125 13.125H8.75V19.6875H15.3125V13.125Z" fill="#FFDA54"/>
<path d="M19.6875 13.125H13.125V19.6875H19.6875V13.125Z" fill="#FFDA54"/>
<path d="M24.0625 13.125H17.5V19.6875H24.0625V13.125Z" fill="#FFDA54"/>
<path d="M28.4375 13.125H21.875V19.6875H28.4375V13.125Z" fill="#FFDA54"/>
<path d="M32.8125 13.125H26.25V19.6875H32.8125V13.125Z" fill="#FFDA54"/>
<path d="M37.1875 13.125H30.625V19.6875H37.1875V13.125Z" fill="#FFDA54"/>
<path d="M41.5625 13.125H35V19.6875H41.5625V13.125Z" fill="#FFDA54"/>
<path d="M45.9375 13.125H39.375V19.6875H45.9375V13.125Z" fill="#FFDA54"/>
<path d="M50.3125 13.125H43.75V19.6875H50.3125V13.125Z" fill="#FFDA54"/>
<path d="M54.6875 13.125H48.125V19.6875H54.6875V13.125Z" fill="#FFDA54"/>
<path d="M59.0625 13.125H52.5V19.6875H59.0625V13.125Z" fill="#1F1407"/>
<path d="M63.4375 13.125H56.875V19.6875H63.4375V13.125Z" fill="#1F1407"/>
<path d="M67.8125 13.125H61.25V19.6875H67.8125V13.125Z" fill="#1F1407"/>
<path d="M72.1875 13.125H65.625V19.6875H72.1875V13.125Z" fill="#AF1818"/>
<path d="M76.5625 13.125H70V19.6875H76.5625V13.125Z" fill="#AF1818"/>
<path d="M80.9375 13.125H74.375V19.6875H80.9375V13.125Z" fill="#AF1818"/>
<path d="M85.3125 13.125H78.75V19.6875H85.3125V13.125Z" fill="#1F1407"/>
<path d="M89.6875 13.125H83.125V19.6875H89.6875V13.125Z" fill="#1F1407"/>
<path d="M94.0625 13.125H87.5V19.6875H94.0625V13.125Z" fill="#FFDA54"/>
<path d="M98.4375 13.125H91.875V19.6875H98.4375V13.125Z" fill="#FFDA54"/>
<path d="M102.812 13.125H96.25V19.6875H102.812V13.125Z" fill="#FFDA54"/>
<path d="M107.188 13.125H100.625V19.6875H107.188V13.125Z" fill="#FFDA54"/>
<path d="M111.562 13.125H105V19.6875H111.562V13.125Z" fill="#FFDA54"/>
<path d="M115.938 13.125H109.375V19.6875H115.938V13.125Z" fill="#FFDA54"/>
<path d="M120.312 13.125H113.75V19.6875H120.312V13.125Z" fill="#FFDA54"/>
<path d="M124.688 13.125H118.125V19.6875H124.688V13.125Z" fill="#FFDA54"/>
<path d="M129.062 13.125H122.5V19.6875H129.062V13.125Z" fill="#FFDA54"/>
<path d="M133.438 13.125H126.875V19.6875H133.438V13.125Z" fill="#FFDA54"/>
<path d="M137.812 13.125H131.25V19.6875H137.812V13.125Z" fill="#FFDA54"/>
<path d="M142.188 13.125H135.625V19.6875H142.188V13.125Z" fill="#FFDA54"/>
<path d="M6.5625 17.5H0V24.0625H6.5625V17.5Z" fill="#FFDA54"/>
<path d="M10.9375 17.5H4.375V24.0625H10.9375V17.5Z" fill="#FFDA54"/>
<path d="M15.3125 17.5H8.75V24.0625H15.3125V17.5Z" fill="#FFDA54"/>
<path d="M19.6875 17.5H13.125V24.0625H19.6875V17.5Z" fill="#FFDA54"/>
<path d="M24.0625 17.5H17.5V24.0625H24.0625V17.5Z" fill="#FFDA54"/>
<path d="M28.4375 17.5H21.875V24.0625H28.4375V17.5Z" fill="#FFDA54"/>
<path d="M32.8125 17.5H26.25V24.0625H32.8125V17.5Z" fill="#FFDA54"/>
<path d="M37.1875 17.5H30.625V24.0625H37.1875V17.5Z" fill="#FFDA54"/>
<path d="M41.5625 17.5H35V24.0625H41.5625V17.5Z" fill="#FFDA54"/>
<path d="M45.9375 17.5H39.375V24.0625H45.9375V17.5Z" fill="#FFDA54"/>
<path d="M50.3125 17.5H43.75V24.0625H50.3125V17.5Z" fill="#1F1407"/>
<path d="M54.6875 17.5H48.125V24.0625H54.6875V17.5Z" fill="#1F1407"/>
<path d="M59.0625 17.5H52.5V24.0625H59.0625V17.5Z" fill="#1F1407"/>
<path d="M63.4375 17.5H56.875V24.0625H63.4375V17.5Z" fill="#AF1818"/>
<path d="M67.8125 17.5H61.25V24.0625H67.8125V17.5Z" fill="#AF1818"/>
<path d="M72.1875 17.5H65.625V24.0625H72.1875V17.5Z" fill="#AF1818"/>
<path d="M76.5625 17.5H70V24.0625H76.5625V17.5Z" fill="#AF1818"/>
<path d="M80.9375 17.5H74.375V24.0625H80.9375V17.5Z" fill="#AF1818"/>
<path d="M85.3125 17.5H78.75V24.0625H85.3125V17.5Z" fill="#AF1818"/>
<path d="M89.6875 17.5H83.125V24.0625H89.6875V17.5Z" fill="#1F1407"/>
<path d="M94.0625 17.5H87.5V24.0625H94.0625V17.5Z" fill="#FFDA54"/>
<path d="M98.4375 17.5H91.875V24.0625H98.4375V17.5Z" fill="#FFDA54"/>
<path d="M102.812 17.5H96.25V24.0625H102.812V17.5Z" fill="#FFDA54"/>
<path d="M107.188 17.5H100.625V24.0625H107.188V17.5Z" fill="#FFDA54"/>
<path d="M111.562 17.5H105V24.0625H111.562V17.5Z" fill="#FFDA54"/>
<path d="M115.938 17.5H109.375V24.0625H115.938V17.5Z" fill="#FFDA54"/>
<path d="M120.312 17.5H113.75V24.0625H120.312V17.5Z" fill="#FFDA54"/>
<path d="M124.688 17.5H118.125V24.0625H124.688V17.5Z" fill="#FFDA54"/>
<path d="M129.062 17.5H122.5V24.0625H129.062V17.5Z" fill="#FFDA54"/>
<path d="M133.438 17.5H126.875V24.0625H133.438V17.5Z" fill="#FFDA54"/>
<path d="M137.812 17.5H131.25V24.0625H137.812V17.5Z" fill="#FFDA54"/>
<path d="M142.188 17.5H135.625V24.0625H142.188V17.5Z" fill="#FFDA54"/>
<path d="M6.5625 21.875H0V28.4375H6.5625V21.875Z" fill="#FFDA54"/>
<path d="M10.9375 21.875H4.375V28.4375H10.9375V21.875Z" fill="#FFDA54"/>
<path d="M15.3125 21.875H8.75V28.4375H15.3125V21.875Z" fill="#FFDA54"/>
<path d="M19.6875 21.875H13.125V28.4375H19.6875V21.875Z" fill="#FFDA54"/>
<path d="M24.0625 21.875H17.5V28.4375H24.0625V21.875Z" fill="#FFDA54"/>
<path d="M28.4375 21.875H21.875V28.4375H28.4375V21.875Z" fill="#FFDA54"/>
<path d="M32.8125 21.875H26.25V28.4375H32.8125V21.875Z" fill="#FFDA54"/>
<path d="M37.1875 21.875H30.625V28.4375H37.1875V21.875Z" fill="#FFDA54"/>
<path d="M41.5625 21.875H35V28.4375H41.5625V21.875Z" fill="#1F1407"/>
<path d="M45.9375 21.875H39.375V28.4375H45.9375V21.875Z" fill="#1F1407"/>
<path d="M50.3125 21.875H43.75V28.4375H50.3125V21.875Z" fill="#1F1407"/>
<path d="M54.6875 21.875H48.125V28.4375H54.6875V21.875Z" fill="#AF1818"/>
<path d="M59.0625 21.875H52.5V28.4375H59.0625V21.875Z" fill="#AF1818"/>
<path d="M63.4375 21.875H56.875V28.4375H63.4375V21.875Z" fill="#AF1818"/>
<path d="M67.8125 21.875H61.25V28.4375H67.8125V21.875Z" fill="#AF1818"/>
<path d="M72.1875 21.875H65.625V28.4375H72.1875V21.875Z" fill="#AF1818"/>
<path d="M76.5625 21.875H70V28.4375H76.5625V21.875Z" fill="#AF1818"/>
<path d="M80.9375 21.875H74.375V28.4375H80.9375V21.875Z" fill="#AF1818"/>
<path d="M85.3125 21.875H78.75V28.4375H85.3125V21.875Z" fill="#AF1818"/>
<path d="M89.6875 21.875H83.125V28.4375H89.6875V21.875Z" fill="#1F1407"/>
<path d="M94.0625 21.875H87.5V28.4375H94.0625V21.875Z" fill="#FFDA54"/>
<path d="M98.4375 21.875H91.875V28.4375H98.4375V21.875Z" fill="#FFDA54"/>
<path d="M102.812 21.875H96.25V28.4375H102.812V21.875Z" fill="#FFDA54"/>
<path d="M107.188 21.875H100.625V28.4375H107.188V21.875Z" fill="#FFDA54"/>
<path d="M111.562 21.875H105V28.4375H111.562V21.875Z" fill="#FFDA54"/>
<path d="M115.938 21.875H109.375V28.4375H115.938V21.875Z" fill="#FFDA54"/>
<path d="M120.312 21.875H113.75V28.4375H120.312V21.875Z" fill="#FFDA54"/>
<path d="M124.688 21.875H118.125V28.4375H124.688V21.875Z" fill="#FFDA54"/>
<path d="M129.062 21.875H122.5V28.4375H129.062V21.875Z" fill="#FFDA54"/>
<path d="M133.438 21.875H126.875V28.4375H133.438V21.875Z" fill="#FFDA54"/>
<path d="M137.812 21.875H131.25V28.4375H137.812V21.875Z" fill="#FFDA54"/>
<path d="M142.188 21.875H135.625V28.4375H142.188V21.875Z" fill="#FFDA54"/>
<path d="M6.5625 26.25H0V32.8125H6.5625V26.25Z" fill="#FFDA54"/>
<path d="M10.9375 26.25H4.375V32.8125H10.9375V26.25Z" fill="#FFDA54"/>
<path d="M15.3125 26.25H8.75V32.8125H15.3125V26.25Z" fill="#FFDA54"/>
<path d="M19.6875 26.25H13.125V32.8125H19.6875V26.25Z" fill="#FFDA54"/>
<path d="M24.0625 26.25H17.5V32.8125H24.0625V26.25Z" fill="#FFDA54"/>
<path d="M28.4375 26.25H21.875V32.8125H28.4375V26.25Z" fill="#FFDA54"/>
<path d="M32.8125 26.25H26.25V32.8125H32.8125V26.25Z" fill="#FFDA54"/>
<path d="M37.1875 26.25H30.625V32.8125H37.1875V26.25Z" fill="#1F1407"/>
<path d="M41.5625 26.25H35V32.8125H41.5625V26.25Z" fill="#1F1407"/>
<path d="M45.9375 26.25H39.375V32.8125H45.9375V26.25Z" fill="#AF1818"/>
<path d="M50.3125 26.25H43.75V32.8125H50.3125V26.25Z" fill="#AF1818"/>
<path d="M54.6875 26.25H48.125V32.8125H54.6875V26.25Z" fill="#AF1818"/>
<path d="M59.0625 26.25H52.5V32.8125H59.0625V26.25Z" fill="#AF1818"/>
<path d="M63.4375 26.25H56.875V32.8125H63.4375V26.25Z" fill="#AF1818"/>
<path d="M67.8125 26.25H61.25V32.8125H67.8125V26.25Z" fill="#1F1407"/>
<path d="M72.1875 26.25H65.625V32.8125H72.1875V26.25Z" fill="#1F1407"/>
<path d="M76.5625 26.25H70V32.8125H76.5625V26.25Z" fill="#1F1407"/>
<path d="M80.9375 26.25H74.375V32.8125H80.9375V26.25Z" fill="#1F1407"/>
<path d="M85.3125 26.25H78.75V32.8125H85.3125V26.25Z" fill="#1F1407"/>
<path d="M89.6875 26.25H83.125V32.8125H89.6875V26.25Z" fill="#1F1407"/>
<path d="M94.0625 26.25H87.5V32.8125H94.0625V26.25Z" fill="#1F1407"/>
<path d="M98.4375 26.25H91.875V32.8125H98.4375V26.25Z" fill="#FFDA54"/>
<path d="M102.812 26.25H96.25V32.8125H102.812V26.25Z" fill="#FFDA54"/>
<path d="M107.188 26.25H100.625V32.8125H107.188V26.25Z" fill="#FFDA54"/>
<path d="M111.562 26.25H105V32.8125H111.562V26.25Z" fill="#FFDA54"/>
<path d="M115.938 26.25H109.375V32.8125H115.938V26.25Z" fill="#FFDA54"/>
<path d="M120.312 26.25H113.75V32.8125H120.312V26.25Z" fill="#FFDA54"/>
<path d="M124.688 26.25H118.125V32.8125H124.688V26.25Z" fill="#FFDA54"/>
<path d="M129.062 26.25H122.5V32.8125H129.062V26.25Z" fill="#FFDA54"/>
<path d="M133.438 26.25H126.875V32.8125H133.438V26.25Z" fill="#FFDA54"/>
<path d="M137.812 26.25H131.25V32.8125H137.812V26.25Z" fill="#FFDA54"/>
<path d="M142.188 26.25H135.625V32.8125H142.188V26.25Z" fill="#FFDA54"/>
<path d="M6.5625 30.625H0V37.1875H6.5625V30.625Z" fill="#FFDA54"/>
<path d="M10.9375 30.625H4.375V37.1875H10.9375V30.625Z" fill="#FFDA54"/>
<path d="M15.3125 30.625H8.75V37.1875H15.3125V30.625Z" fill="#FFDA54"/>
<path d="M19.6875 30.625H13.125V37.1875H19.6875V30.625Z" fill="#FFDA54"/>
<path d="M24.0625 30.625H17.5V37.1875H24.0625V30.625Z" fill="#FFDA54"/>
<path d="M28.4375 30.625H21.875V37.1875H28.4375V30.625Z" fill="#FFDA54"/>
<path d="M32.8125 30.625H26.25V37.1875H32.8125V30.625Z" fill="#1F1407"/>
<path d="M37.1875 30.625H30.625V37.1875H37.1875V30.625Z" fill="#1F1407"/>
<path d="M41.5625 30.625H35V37.1875H41.5625V30.625Z" fill="#AF1818"/>
<path d="M45.9375 30.625H39.375V37.1875H45.9375V30.625Z" fill="#AF1818"/>
<path d="M50.3125 30.625H43.75V37.1875H50.3125V30.625Z" fill="#AF1818"/>
<path d="M54.6875 30.625H48.125V37.1875H54.6875V30.625Z" fill="#1F1407"/>
<path d="M59.0625 30.625H52.5V37.1875H59.0625V30.625Z" fill="#1F1407"/>
<path d="M63.4375 30.625H56.875V37.1875H63.4375V30.625Z" fill="#1F1407"/>
<path d="M67.8125 30.625H61.25V37.1875H67.8125V30.625Z" fill="#1F1407"/>
<path d="M72.1875 30.625H65.625V37.1875H72.1875V30.625Z" fill="#FEB964"/>
<path d="M76.5625 30.625H70V37.1875H76.5625V30.625Z" fill="#FEB964"/>
<path d="M80.9375 30.625H74.375V37.1875H80.9375V30.625Z" fill="#FFDA54"/>
<path d="M85.3125 30.625H78.75V37.1875H85.3125V30.625Z" fill="#FFDA54"/>
<path d="M89.6875 30.625H83.125V37.1875H89.6875V30.625Z" fill="#FFDA54"/>
<path d="M94.0625 30.625H87.5V37.1875H94.0625V30.625Z" fill="#1F1407"/>
<path d="M98.4375 30.625H91.875V37.1875H98.4375V30.625Z" fill="#1F1407"/>
<path d="M102.812 30.625H96.25V37.1875H102.812V30.625Z" fill="#FFDA54"/>
<path d="M107.188 30.625H100.625V37.1875H107.188V30.625Z" fill="#FFDA54"/>
<path d="M111.562 30.625H105V37.1875H111.562V30.625Z" fill="#FFDA54"/>
<path d="M115.938 30.625H109.375V37.1875H115.938V30.625Z" fill="#FFDA54"/>
<path d="M120.312 30.625H113.75V37.1875H120.312V30.625Z" fill="#FFDA54"/>
<path d="M124.688 30.625H118.125V37.1875H124.688V30.625Z" fill="#FFDA54"/>
<path d="M129.062 30.625H122.5V37.1875H129.062V30.625Z" fill="#FFDA54"/>
<path d="M133.438 30.625H126.875V37.1875H133.438V30.625Z" fill="#FFDA54"/>
<path d="M137.812 30.625H131.25V37.1875H137.812V30.625Z" fill="#FFDA54"/>
<path d="M142.188 30.625H135.625V37.1875H142.188V30.625Z" fill="#FFDA54"/>
<path d="M6.5625 35H0V41.5625H6.5625V35Z" fill="#FFDA54"/>
<path d="M10.9375 35H4.375V41.5625H10.9375V35Z" fill="#FFDA54"/>
<path d="M15.3125 35H8.75V41.5625H15.3125V35Z" fill="#FFDA54"/>
<path d="M19.6875 35H13.125V41.5625H19.6875V35Z" fill="#FFDA54"/>
<path d="M24.0625 35H17.5V41.5625H24.0625V35Z" fill="#FFDA54"/>
<path d="M28.4375 35H21.875V41.5625H28.4375V35Z" fill="#1F1407"/>
<path d="M32.8125 35H26.25V41.5625H32.8125V35Z" fill="#1F1407"/>
<path d="M37.1875 35H30.625V41.5625H37.1875V35Z" fill="#AF1818"/>
<path d="M41.5625 35H35V41.5625H41.5625V35Z" fill="#AF1818"/>
<path d="M45.9375 35H39.375V41.5625H45.9375V35Z" fill="#AF1818"/>
<path d="M50.3125 35H43.75V41.5625H50.3125V35Z" fill="#1F1407"/>
<path d="M54.6875 35H48.125V41.5625H54.6875V35Z" fill="#FEB964"/>
<path d="M59.0625 35H52.5V41.5625H59.0625V35Z" fill="#FEB964"/>
<path d="M63.4375 35H56.875V41.5625H63.4375V35Z" fill="#FEB964"/>
<path d="M67.8125 35H61.25V41.5625H67.8125V35Z" fill="#FEB964"/>
<path d="M72.1875 35H65.625V41.5625H72.1875V35Z" fill="#FEB964"/>
<path d="M76.5625 35H70V41.5625H76.5625V35Z" fill="#FEB964"/>
<path d="M80.9375 35H74.375V41.5625H80.9375V35Z" fill="#FFDA54"/>
<path d="M85.3125 35H78.75V41.5625H85.3125V35Z" fill="#FFDA54"/>
<path d="M89.6875 35H83.125V41.5625H89.6875V35Z" fill="#FFDA54"/>
<path d="M94.0625 35H87.5V41.5625H94.0625V35Z" fill="#FFDA54"/>
<path d="M98.4375 35H91.875V41.5625H98.4375V35Z" fill="#1F1407"/>
<path d="M102.812 35H96.25V41.5625H102.812V35Z" fill="#FFDA54"/>
<path d="M107.188 35H100.625V41.5625H107.188V35Z" fill="#FFDA54"/>
<path d="M111.562 35H105V41.5625H111.562V35Z" fill="#FFDA54"/>
<path d="M115.938 35H109.375V41.5625H115.938V35Z" fill="#FFDA54"/>
<path d="M120.312 35H113.75V41.5625H120.312V35Z" fill="#FFDA54"/>
<path d="M124.688 35H118.125V41.5625H124.688V35Z" fill="#FFDA54"/>
<path d="M129.062 35H122.5V41.5625H129.062V35Z" fill="#FFDA54"/>
<path d="M133.438 35H126.875V41.5625H133.438V35Z" fill="#FFDA54"/>
<path d="M137.812 35H131.25V41.5625H137.812V35Z" fill="#FFDA54"/>
<path d="M142.188 35H135.625V41.5625H142.188V35Z" fill="#FFDA54"/>
<path d="M6.5625 39.375H0V45.9375H6.5625V39.375Z" fill="#FFDA54"/>
<path d="M10.9375 39.375H4.375V45.9375H10.9375V39.375Z" fill="#FFDA54"/>
<path d="M15.3125 39.375H8.75V45.9375H15.3125V39.375Z" fill="#FFDA54"/>
<path d="M19.6875 39.375H13.125V45.9375H19.6875V39.375Z" fill="#1F1407"/>
<path d="M24.0625 39.375H17.5V45.9375H24.0625V39.375Z" fill="#1F1407"/>
<path d="M28.4375 39.375H21.875V45.9375H28.4375V39.375Z" fill="#1F1407"/>
<path d="M32.8125 39.375H26.25V45.9375H32.8125V39.375Z" fill="#AF1818"/>
<path d="M37.1875 39.375H30.625V45.9375H37.1875V39.375Z" fill="#AF1818"/>
<path d="M41.5625 39.375H35V45.9375H41.5625V39.375Z" fill="#1F1407"/>
<path d="M45.9375 39.375H39.375V45.9375H45.9375V39.375Z" fill="#1F1407"/>
<path d="M50.3125 39.375H43.75V45.9375H50.3125V39.375Z" fill="#1F1407"/>
<path d="M54.6875 39.375H48.125V45.9375H54.6875V39.375Z" fill="#FEB964"/>
<path d="M59.0625 39.375H52.5V45.9375H59.0625V39.375Z" fill="#FEB964"/>
<path d="M63.4375 39.375H56.875V45.9375H63.4375V39.375Z" fill="#FEB964"/>
<path d="M67.8125 39.375H61.25V45.9375H67.8125V39.375Z" fill="#FFDA54"/>
<path d="M72.1875 39.375H65.625V45.9375H72.1875V39.375Z" fill="#FEB964"/>
<path d="M76.5625 39.375H70V45.9375H76.5625V39.375Z" fill="#FEB964"/>
<path d="M80.9375 39.375H74.375V45.9375H80.9375V39.375Z" fill="#FEB964"/>
<path d="M85.3125 39.375H78.75V45.9375H85.3125V39.375Z" fill="#FEB964"/>
<path d="M89.6875 39.375H83.125V45.9375H89.6875V39.375Z" fill="#FFDA54"/>
<path d="M94.0625 39.375H87.5V45.9375H94.0625V39.375Z" fill="#FEB964"/>
<path d="M98.4375 39.375H91.875V45.9375H98.4375V39.375Z" fill="#1F1407"/>
<path d="M102.812 39.375H96.25V45.9375H102.812V39.375Z" fill="#FFDA54"/>
<path d="M107.188 39.375H100.625V45.9375H107.188V39.375Z" fill="#FFDA54"/>
<path d="M111.562 39.375H105V45.9375H111.562V39.375Z" fill="#FFDA54"/>
<path d="M115.938 39.375H109.375V45.9375H115.938V39.375Z" fill="#FFDA54"/>
<path d="M120.312 39.375H113.75V45.9375H120.312V39.375Z" fill="#FFDA54"/>
<path d="M124.688 39.375H118.125V45.9375H124.688V39.375Z" fill="#FFDA54"/>
<path d="M129.062 39.375H122.5V45.9375H129.062V39.375Z" fill="#FFDA54"/>
<path d="M133.438 39.375H126.875V45.9375H133.438V39.375Z" fill="#FFDA54"/>
<path d="M137.812 39.375H131.25V45.9375H137.812V39.375Z" fill="#FFDA54"/>
<path d="M142.188 39.375H135.625V45.9375H142.188V39.375Z" fill="#FFDA54"/>
<path d="M6.5625 43.75H0V50.3125H6.5625V43.75Z" fill="#FFDA54"/>
<path d="M10.9375 43.75H4.375V50.3125H10.9375V43.75Z" fill="#FFDA54"/>
<path d="M15.3125 43.75H8.75V50.3125H15.3125V43.75Z" fill="#FFDA54"/>
<path d="M19.6875 43.75H13.125V50.3125H19.6875V43.75Z" fill="#1F1407"/>
<path d="M24.0625 43.75H17.5V50.3125H24.0625V43.75Z" fill="#AF1818"/>
<path d="M28.4375 43.75H21.875V50.3125H28.4375V43.75Z" fill="#AF1818"/>
<path d="M32.8125 43.75H26.25V50.3125H32.8125V43.75Z" fill="#AF1818"/>
<path d="M37.1875 43.75H30.625V50.3125H37.1875V43.75Z" fill="#AF1818"/>
<path d="M41.5625 43.75H35V50.3125H41.5625V43.75Z" fill="#1F1407"/>
<path d="M45.9375 43.75H39.375V50.3125H45.9375V43.75Z" fill="#FEB964"/>
<path d="M50.3125 43.75H43.75V50.3125H50.3125V43.75Z" fill="#FEB964"/>
<path d="M54.6875 43.75H48.125V50.3125H54.6875V43.75Z" fill="#FEB964"/>
<path d="M59.0625 43.75H52.5V50.3125H59.0625V43.75Z" fill="#FFDA54"/>
<path d="M63.4375 43.75H56.875V50.3125H63.4375V43.75Z" fill="#FFDA54"/>
<path d="M67.8125 43.75H61.25V50.3125H67.8125V43.75Z" fill="#FEB964"/>
<path d="M72.1875 43.75H65.625V50.3125H72.1875V43.75Z" fill="#FEB964"/>
<path d="M76.5625 43.75H70V50.3125H76.5625V43.75Z" fill="#FEB964"/>
<path d="M80.9375 43.75H74.375V50.3125H80.9375V43.75Z" fill="#FEB964"/>
<path d="M85.3125 43.75H78.75V50.3125H85.3125V43.75Z" fill="#FEB964"/>
<path d="M89.6875 43.75H83.125V50.3125H89.6875V43.75Z" fill="#FEB964"/>
<path d="M94.0625 43.75H87.5V50.3125H94.0625V43.75Z" fill="#FEB964"/>
<path d="M98.4375 43.75H91.875V50.3125H98.4375V43.75Z" fill="#1F1407"/>
<path d="M102.812 43.75H96.25V50.3125H102.812V43.75Z" fill="#1F1407"/>
<path d="M107.188 43.75H100.625V50.3125H107.188V43.75Z" fill="#FFDA54"/>
<path d="M111.562 43.75H105V50.3125H111.562V43.75Z" fill="#FFDA54"/>
<path d="M115.938 43.75H109.375V50.3125H115.938V43.75Z" fill="#FFDA54"/>
<path d="M120.312 43.75H113.75V50.3125H120.312V43.75Z" fill="#FFDA54"/>
<path d="M124.688 43.75H118.125V50.3125H124.688V43.75Z" fill="#FFDA54"/>
<path d="M129.062 43.75H122.5V50.3125H129.062V43.75Z" fill="#FFDA54"/>
<path d="M133.438 43.75H126.875V50.3125H133.438V43.75Z" fill="#FFDA54"/>
<path d="M137.812 43.75H131.25V50.3125H137.812V43.75Z" fill="#FFDA54"/>
<path d="M142.188 43.75H135.625V50.3125H142.188V43.75Z" fill="#FFDA54"/>
<path d="M6.5625 48.125H0V54.6875H6.5625V48.125Z" fill="#FFDA54"/>
<path d="M10.9375 48.125H4.375V54.6875H10.9375V48.125Z" fill="#FFDA54"/>
<path d="M15.3125 48.125H8.75V54.6875H15.3125V48.125Z" fill="#FFDA54"/>
<path d="M19.6875 48.125H13.125V54.6875H19.6875V48.125Z" fill="#1F1407"/>
<path d="M24.0625 48.125H17.5V54.6875H24.0625V48.125Z" fill="#1F1407"/>
<path d="M28.4375 48.125H21.875V54.6875H28.4375V48.125Z" fill="#AF1818"/>
<path d="M32.8125 48.125H26.25V54.6875H32.8125V48.125Z" fill="#AF1818"/>
<path d="M37.1875 48.125H30.625V54.6875H37.1875V48.125Z" fill="#1F1407"/>
<path d="M41.5625 48.125H35V54.6875H41.5625V48.125Z" fill="#1F1407"/>
<path d="M45.9375 48.125H39.375V54.6875H45.9375V48.125Z" fill="#FEB964"/>
<path d="M50.3125 48.125H43.75V54.6875H50.3125V48.125Z" fill="#FEB964"/>
<path d="M54.6875 48.125H48.125V54.6875H54.6875V48.125Z" fill="#FEB964"/>
<path d="M59.0625 48.125H52.5V54.6875H59.0625V48.125Z" fill="#FEB964"/>
<path d="M63.4375 48.125H56.875V54.6875H63.4375V48.125Z" fill="#FFDA54"/>
<path d="M67.8125 48.125H61.25V54.6875H67.8125V48.125Z" fill="#FFDA54"/>
<path d="M72.1875 48.125H65.625V54.6875H72.1875V48.125Z" fill="#FFDA54"/>
<path d="M76.5625 48.125H70V54.6875H76.5625V48.125Z" fill="#FEB964"/>
<path d="M80.9375 48.125H74.375V54.6875H80.9375V48.125Z" fill="#FEB964"/>
<path d="M85.3125 48.125H78.75V54.6875H85.3125V48.125Z" fill="#FEB964"/>
<path d="M89.6875 48.125H83.125V54.6875H89.6875V48.125Z" fill="#FEB964"/>
<path d="M94.0625 48.125H87.5V54.6875H94.0625V48.125Z" fill="#FEB964"/>
<path d="M98.4375 48.125H91.875V54.6875H98.4375V48.125Z" fill="#FEB964"/>
<path d="M102.812 48.125H96.25V54.6875H102.812V48.125Z" fill="#1F1407"/>
<path d="M107.188 48.125H100.625V54.6875H107.188V48.125Z" fill="#FFDA54"/>
<path d="M111.562 48.125H105V54.6875H111.562V48.125Z" fill="#FFDA54"/>
<path d="M115.938 48.125H109.375V54.6875H115.938V48.125Z" fill="#FFDA54"/>
<path d="M120.312 48.125H113.75V54.6875H120.312V48.125Z" fill="#FFDA54"/>
<path d="M124.688 48.125H118.125V54.6875H124.688V48.125Z" fill="#FFDA54"/>
<path d="M129.062 48.125H122.5V54.6875H129.062V48.125Z" fill="#FFDA54"/>
<path d="M133.438 48.125H126.875V54.6875H133.438V48.125Z" fill="#FFDA54"/>
<path d="M137.812 48.125H131.25V54.6875H137.812V48.125Z" fill="#FFDA54"/>
<path d="M142.188 48.125H135.625V54.6875H142.188V48.125Z" fill="#FFDA54"/>
<path d="M6.5625 52.5H0V59.0625H6.5625V52.5Z" fill="#FFDA54"/>
<path d="M10.9375 52.5H4.375V59.0625H10.9375V52.5Z" fill="#FFDA54"/>
<path d="M15.3125 52.5H8.75V59.0625H15.3125V52.5Z" fill="#FFDA54"/>
<path d="M19.6875 52.5H13.125V59.0625H19.6875V52.5Z" fill="#FFDA54"/>
<path d="M24.0625 52.5H17.5V59.0625H24.0625V52.5Z" fill="#1F1407"/>
<path d="M28.4375 52.5H21.875V59.0625H28.4375V52.5Z" fill="#1F1407"/>
<path d="M32.8125 52.5H26.25V59.0625H32.8125V52.5Z" fill="#1F1407"/>
<path d="M37.1875 52.5H30.625V59.0625H37.1875V52.5Z" fill="#1F1407"/>
<path d="M41.5625 52.5H35V59.0625H41.5625V52.5Z" fill="#FEB964"/>
<path d="M45.9375 52.5H39.375V59.0625H45.9375V52.5Z" fill="#FEB964"/>
<path d="M50.3125 52.5H43.75V59.0625H50.3125V52.5Z" fill="#FEB964"/>
<path d="M54.6875 52.5H48.125V59.0625H54.6875V52.5Z" fill="#FEB964"/>
<path d="M59.0625 52.5H52.5V59.0625H59.0625V52.5Z" fill="#FEB964"/>
<path d="M63.4375 52.5H56.875V59.0625H63.4375V52.5Z" fill="#FEB964"/>
<path d="M67.8125 52.5H61.25V59.0625H67.8125V52.5Z" fill="#FFDA54"/>
<path d="M72.1875 52.5H65.625V59.0625H72.1875V52.5Z" fill="#FFDA54"/>
<path d="M76.5625 52.5H70V59.0625H76.5625V52.5Z" fill="#FEB964"/>
<path d="M80.9375 52.5H74.375V59.0625H80.9375V52.5Z" fill="#FEB964"/>
<path d="M85.3125 52.5H78.75V59.0625H85.3125V52.5Z" fill="#FEB964"/>
<path d="M89.6875 52.5H83.125V59.0625H89.6875V52.5Z" fill="#FFDA54"/>
<path d="M94.0625 52.5H87.5V59.0625H94.0625V52.5Z" fill="#FFDA54"/>
<path d="M98.4375 52.5H91.875V59.0625H98.4375V52.5Z" fill="#FFDA54"/>
<path d="M102.812 52.5H96.25V59.0625H102.812V52.5Z" fill="#1F1407"/>
<path d="M107.188 52.5H100.625V59.0625H107.188V52.5Z" fill="#FFDA54"/>
<path d="M111.562 52.5H105V59.0625H111.562V52.5Z" fill="#FFDA54"/>
<path d="M115.938 52.5H109.375V59.0625H115.938V52.5Z" fill="#FFDA54"/>
<path d="M120.312 52.5H113.75V59.0625H120.312V52.5Z" fill="#FFDA54"/>
<path d="M124.688 52.5H118.125V59.0625H124.688V52.5Z" fill="#FFDA54"/>
<path d="M129.062 52.5H122.5V59.0625H129.062V52.5Z" fill="#FFDA54"/>
<path d="M133.438 52.5H126.875V59.0625H133.438V52.5Z" fill="#FFDA54"/>
<path d="M137.812 52.5H131.25V59.0625H137.812V52.5Z" fill="#FFDA54"/>
<path d="M142.188 52.5H135.625V59.0625H142.188V52.5Z" fill="#FFDA54"/>
<path d="M6.5625 56.875H0V63.4375H6.5625V56.875Z" fill="#FFDA54"/>
<path d="M10.9375 56.875H4.375V63.4375H10.9375V56.875Z" fill="#FFDA54"/>
<path d="M15.3125 56.875H8.75V63.4375H15.3125V56.875Z" fill="#FFDA54"/>
<path d="M19.6875 56.875H13.125V63.4375H19.6875V56.875Z" fill="#FFDA54"/>
<path d="M24.0625 56.875H17.5V63.4375H24.0625V56.875Z" fill="#FFDA54"/>
<path d="M28.4375 56.875H21.875V63.4375H28.4375V56.875Z" fill="#FFDA54"/>
<path d="M32.8125 56.875H26.25V63.4375H32.8125V56.875Z" fill="#1F1407"/>
<path d="M37.1875 56.875H30.625V63.4375H37.1875V56.875Z" fill="#1F1407"/>
<path d="M41.5625 56.875H35V63.4375H41.5625V56.875Z" fill="#1F1407"/>
<path d="M45.9375 56.875H39.375V63.4375H45.9375V56.875Z" fill="#1F1407"/>
<path d="M50.3125 56.875H43.75V63.4375H50.3125V56.875Z" fill="#FEB964"/>
<path d="M54.6875 56.875H48.125V63.4375H54.6875V56.875Z" fill="#FFDA54"/>
<path d="M59.0625 56.875H52.5V63.4375H59.0625V56.875Z" fill="#FEB964"/>
<path d="M63.4375 56.875H56.875V63.4375H63.4375V56.875Z" fill="#FEB964"/>
<path d="M67.8125 56.875H61.25V63.4375H67.8125V56.875Z" fill="#FEB964"/>
<path d="M72.1875 56.875H65.625V63.4375H72.1875V56.875Z" fill="#FEB964"/>
<path d="M76.5625 56.875H70V63.4375H76.5625V56.875Z" fill="#FEB964"/>
<path d="M80.9375 56.875H74.375V63.4375H80.9375V56.875Z" fill="#FEB964"/>
<path d="M85.3125 56.875H78.75V63.4375H85.3125V56.875Z" fill="#FEB964"/>
<path d="M89.6875 56.875H83.125V63.4375H89.6875V56.875Z" fill="#FFDA54"/>
<path d="M94.0625 56.875H87.5V63.4375H94.0625V56.875Z" fill="#FFDA54"/>
<path d="M98.4375 56.875H91.875V63.4375H98.4375V56.875Z" fill="#FFDA54"/>
<path d="M102.812 56.875H96.25V63.4375H102.812V56.875Z" fill="#1F1407"/>
<path d="M107.188 56.875H100.625V63.4375H107.188V56.875Z" fill="#FFDA54"/>
<path d="M111.562 56.875H105V63.4375H111.562V56.875Z" fill="#FFDA54"/>
<path d="M115.938 56.875H109.375V63.4375H115.938V56.875Z" fill="#FFDA54"/>
<path d="M120.312 56.875H113.75V63.4375H120.312V56.875Z" fill="#FFDA54"/>
<path d="M124.688 56.875H118.125V63.4375H124.688V56.875Z" fill="#FFDA54"/>
<path d="M129.062 56.875H122.5V63.4375H129.062V56.875Z" fill="#FFDA54"/>
<path d="M133.438 56.875H126.875V63.4375H133.438V56.875Z" fill="#FFDA54"/>
<path d="M137.812 56.875H131.25V63.4375H137.812V56.875Z" fill="#FFDA54"/>
<path d="M142.188 56.875H135.625V63.4375H142.188V56.875Z" fill="#FFDA54"/>
<path d="M6.5625 61.25H0V67.8125H6.5625V61.25Z" fill="#FFDA54"/>
<path d="M10.9375 61.25H4.375V67.8125H10.9375V61.25Z" fill="#FFDA54"/>
<path d="M15.3125 61.25H8.75V67.8125H15.3125V61.25Z" fill="#FFDA54"/>
<path d="M19.6875 61.25H13.125V67.8125H19.6875V61.25Z" fill="#FFDA54"/>
<path d="M24.0625 61.25H17.5V67.8125H24.0625V61.25Z" fill="#FFDA54"/>
<path d="M28.4375 61.25H21.875V67.8125H28.4375V61.25Z" fill="#FFDA54"/>
<path d="M32.8125 61.25H26.25V67.8125H32.8125V61.25Z" fill="#FFDA54"/>
<path d="M37.1875 61.25H30.625V67.8125H37.1875V61.25Z" fill="#FFDA54"/>
<path d="M41.5625 61.25H35V67.8125H41.5625V61.25Z" fill="#FFDA54"/>
<path d="M45.9375 61.25H39.375V67.8125H45.9375V61.25Z" fill="#1F1407"/>
<path d="M50.3125 61.25H43.75V67.8125H50.3125V61.25Z" fill="#FFDA54"/>
<path d="M54.6875 61.25H48.125V67.8125H54.6875V61.25Z" fill="#FFDA54"/>
<path d="M59.0625 61.25H52.5V67.8125H59.0625V61.25Z" fill="#FFDA54"/>
<path d="M63.4375 61.25H56.875V67.8125H63.4375V61.25Z" fill="#FEB964"/>
<path d="M67.8125 61.25H61.25V67.8125H67.8125V61.25Z" fill="#FEB964"/>
<path d="M72.1875 61.25H65.625V67.8125H72.1875V61.25Z" fill="#FEB964"/>
<path d="M76.5625 61.25H70V67.8125H76.5625V61.25Z" fill="#FEB964"/>
<path d="M80.9375 61.25H74.375V67.8125H80.9375V61.25Z" fill="#FEB964"/>
<path d="M85.3125 61.25H78.75V67.8125H85.3125V61.25Z" fill="#FEB964"/>
<path d="M89.6875 61.25H83.125V67.8125H89.6875V61.25Z" fill="#FFDA54"/>
<path d="M94.0625 61.25H87.5V67.8125H94.0625V61.25Z" fill="#FFDA54"/>
<path d="M98.4375 61.25H91.875V67.8125H98.4375V61.25Z" fill="#FFDA54"/>
<path d="M102.812 61.25H96.25V67.8125H102.812V61.25Z" fill="#1F1407"/>
<path d="M107.188 61.25H100.625V67.8125H107.188V61.25Z" fill="#1F1407"/>
<path d="M111.562 61.25H105V67.8125H111.562V61.25Z" fill="#FFDA54"/>
<path d="M115.938 61.25H109.375V67.8125H115.938V61.25Z" fill="#FFDA54"/>
<path d="M120.312 61.25H113.75V67.8125H120.312V61.25Z" fill="#FFDA54"/>
<path d="M124.688 61.25H118.125V67.8125H124.688V61.25Z" fill="#FFDA54"/>
<path d="M129.062 61.25H122.5V67.8125H129.062V61.25Z" fill="#FFDA54"/>
<path d="M133.438 61.25H126.875V67.8125H133.438V61.25Z" fill="#FFDA54"/>
<path d="M137.812 61.25H131.25V67.8125H137.812V61.25Z" fill="#FFDA54"/>
<path d="M142.188 61.25H135.625V67.8125H142.188V61.25Z" fill="#FFDA54"/>
<path d="M6.5625 65.625H0V72.1875H6.5625V65.625Z" fill="#FFDA54"/>
<path d="M10.9375 65.625H4.375V72.1875H10.9375V65.625Z" fill="#FFDA54"/>
<path d="M15.3125 65.625H8.75V72.1875H15.3125V65.625Z" fill="#FFDA54"/>
<path d="M19.6875 65.625H13.125V72.1875H19.6875V65.625Z" fill="#FFDA54"/>
<path d="M24.0625 65.625H17.5V72.1875H24.0625V65.625Z" fill="#FFDA54"/>
<path d="M28.4375 65.625H21.875V72.1875H28.4375V65.625Z" fill="#FFDA54"/>
<path d="M32.8125 65.625H26.25V72.1875H32.8125V65.625Z" fill="#FFDA54"/>
<path d="M37.1875 65.625H30.625V72.1875H37.1875V65.625Z" fill="#FFDA54"/>
<path d="M41.5625 65.625H35V72.1875H41.5625V65.625Z" fill="#FFDA54"/>
<path d="M45.9375 65.625H39.375V72.1875H45.9375V65.625Z" fill="#1F1407"/>
<path d="M50.3125 65.625H43.75V72.1875H50.3125V65.625Z" fill="#1F1407"/>
<path d="M54.6875 65.625H48.125V72.1875H54.6875V65.625Z" fill="#FFDA54"/>
<path d="M59.0625 65.625H52.5V72.1875H59.0625V65.625Z" fill="#FFDA54"/>
<path d="M63.4375 65.625H56.875V72.1875H63.4375V65.625Z" fill="#FEB964"/>
<path d="M67.8125 65.625H61.25V72.1875H67.8125V65.625Z" fill="#FEB964"/>
<path d="M72.1875 65.625H65.625V72.1875H72.1875V65.625Z" fill="#FEB964"/>
<path d="M76.5625 65.625H70V72.1875H76.5625V65.625Z" fill="#FEB964"/>
<path d="M80.9375 65.625H74.375V72.1875H80.9375V65.625Z" fill="#FEB964"/>
<path d="M85.3125 65.625H78.75V72.1875H85.3125V65.625Z" fill="#FEB964"/>
<path d="M89.6875 65.625H83.125V72.1875H89.6875V65.625Z" fill="#FEB964"/>
<path d="M94.0625 65.625H87.5V72.1875H94.0625V65.625Z" fill="#FEB964"/>
<path d="M98.4375 65.625H91.875V72.1875H98.4375V65.625Z" fill="#FEB964"/>
<path d="M102.812 65.625H96.25V72.1875H102.812V65.625Z" fill="#FEB964"/>
<path d="M107.188 65.625H100.625V72.1875H107.188V65.625Z" fill="#1F1407"/>
<path d="M111.562 65.625H105V72.1875H111.562V65.625Z" fill="#FFDA54"/>
<path d="M115.938 65.625H109.375V72.1875H115.938V65.625Z" fill="#FFDA54"/>
<path d="M120.312 65.625H113.75V72.1875H120.312V65.625Z" fill="#FFDA54"/>
<path d="M124.688 65.625H118.125V72.1875H124.688V65.625Z" fill="#FFDA54"/>
<path d="M129.062 65.625H122.5V72.1875H129.062V65.625Z" fill="#FFDA54"/>
<path d="M133.438 65.625H126.875V72.1875H133.438V65.625Z" fill="#FFDA54"/>
<path d="M137.812 65.625H131.25V72.1875H137.812V65.625Z" fill="#FFDA54"/>
<path d="M142.188 65.625H135.625V72.1875H142.188V65.625Z" fill="#FFDA54"/>
<path d="M6.5625 70H0V76.5625H6.5625V70Z" fill="#FFDA54"/>
<path d="M10.9375 70H4.375V76.5625H10.9375V70Z" fill="#FFDA54"/>
<path d="M15.3125 70H8.75V76.5625H15.3125V70Z" fill="#FFDA54"/>
<path d="M19.6875 70H13.125V76.5625H19.6875V70Z" fill="#FFDA54"/>
<path d="M24.0625 70H17.5V76.5625H24.0625V70Z" fill="#FFDA54"/>
<path d="M28.4375 70H21.875V76.5625H28.4375V70Z" fill="#FFDA54"/>
<path d="M32.8125 70H26.25V76.5625H32.8125V70Z" fill="#FFDA54"/>
<path d="M37.1875 70H30.625V76.5625H37.1875V70Z" fill="#FFDA54"/>
<path d="M41.5625 70H35V76.5625H41.5625V70Z" fill="#FFDA54"/>
<path d="M45.9375 70H39.375V76.5625H45.9375V70Z" fill="#FFDA54"/>
<path d="M50.3125 70H43.75V76.5625H50.3125V70Z" fill="#1F1407"/>
<path d="M54.6875 70H48.125V76.5625H54.6875V70Z" fill="#FEB964"/>
<path d="M59.0625 70H52.5V76.5625H59.0625V70Z" fill="#1F1407"/>
<path d="M63.4375 70H56.875V76.5625H63.4375V70Z" fill="#FEB964"/>
<path d="M67.8125 70H61.25V76.5625H67.8125V70Z" fill="#FEB964"/>
<path d="M72.1875 70H65.625V76.5625H72.1875V70Z" fill="#FEB964"/>
<path d="M76.5625 70H70V76.5625H76.5625V70Z" fill="#FEB964"/>
<path d="M80.9375 70H74.375V76.5625H80.9375V70Z" fill="#FFDA54"/>
<path d="M85.3125 70H78.75V76.5625H85.3125V70Z" fill="#FEB964"/>
<path d="M89.6875 70H83.125V76.5625H89.6875V70Z" fill="#FEB964"/>
<path d="M94.0625 70H87.5V76.5625H94.0625V70Z" fill="#FEB964"/>
<path d="M98.4375 70H91.875V76.5625H98.4375V70Z" fill="#FEB964"/>
<path d="M102.812 70H96.25V76.5625H102.812V70Z" fill="#FEB964"/>
<path d="M107.188 70H100.625V76.5625H107.188V70Z" fill="#1F1407"/>
<path d="M111.562 70H105V76.5625H111.562V70Z" fill="#FFDA54"/>
<path d="M115.938 70H109.375V76.5625H115.938V70Z" fill="#FFDA54"/>
<path d="M120.312 70H113.75V76.5625H120.312V70Z" fill="#FFDA54"/>
<path d="M124.688 70H118.125V76.5625H124.688V70Z" fill="#FFDA54"/>
<path d="M129.062 70H122.5V76.5625H129.062V70Z" fill="#FFDA54"/>
<path d="M133.438 70H126.875V76.5625H133.438V70Z" fill="#FFDA54"/>
<path d="M137.812 70H131.25V76.5625H137.812V70Z" fill="#FFDA54"/>
<path d="M142.188 70H135.625V76.5625H142.188V70Z" fill="#FFDA54"/>
<path d="M6.5625 74.375H0V80.9375H6.5625V74.375Z" fill="#FFDA54"/>
<path d="M10.9375 74.375H4.375V80.9375H10.9375V74.375Z" fill="#FFDA54"/>
<path d="M15.3125 74.375H8.75V80.9375H15.3125V74.375Z" fill="#FFDA54"/>
<path d="M19.6875 74.375H13.125V80.9375H19.6875V74.375Z" fill="#FFDA54"/>
<path d="M24.0625 74.375H17.5V80.9375H24.0625V74.375Z" fill="#FFDA54"/>
<path d="M28.4375 74.375H21.875V80.9375H28.4375V74.375Z" fill="#FFDA54"/>
<path d="M32.8125 74.375H26.25V80.9375H32.8125V74.375Z" fill="#FFDA54"/>
<path d="M37.1875 74.375H30.625V80.9375H37.1875V74.375Z" fill="#FFDA54"/>
<path d="M41.5625 74.375H35V80.9375H41.5625V74.375Z" fill="#FFDA54"/>
<path d="M45.9375 74.375H39.375V80.9375H45.9375V74.375Z" fill="#FFDA54"/>
<path d="M50.3125 74.375H43.75V80.9375H50.3125V74.375Z" fill="#1F1407"/>
<path d="M54.6875 74.375H48.125V80.9375H54.6875V74.375Z" fill="#FEB964"/>
<path d="M59.0625 74.375H52.5V80.9375H59.0625V74.375Z" fill="#1F1407"/>
<path d="M63.4375 74.375H56.875V80.9375H63.4375V74.375Z" fill="#1F1407"/>
<path d="M67.8125 74.375H61.25V80.9375H67.8125V74.375Z" fill="#1F1407"/>
<path d="M72.1875 74.375H65.625V80.9375H72.1875V74.375Z" fill="#FEB964"/>
<path d="M76.5625 74.375H70V80.9375H76.5625V74.375Z" fill="#FFDA54"/>
<path d="M80.9375 74.375H74.375V80.9375H80.9375V74.375Z" fill="#FFDA54"/>
<path d="M85.3125 74.375H78.75V80.9375H85.3125V74.375Z" fill="#FFDA54"/>
<path d="M89.6875 74.375H83.125V80.9375H89.6875V74.375Z" fill="#FEB964"/>
<path d="M94.0625 74.375H87.5V80.9375H94.0625V74.375Z" fill="#FEB964"/>
<path d="M98.4375 74.375H91.875V80.9375H98.4375V74.375Z" fill="#FEB964"/>
<path d="M102.812 74.375H96.25V80.9375H102.812V74.375Z" fill="#FFDA54"/>
<path d="M107.188 74.375H100.625V80.9375H107.188V74.375Z" fill="#1F1407"/>
<path d="M111.562 74.375H105V80.9375H111.562V74.375Z" fill="#1F1407"/>
<path d="M115.938 74.375H109.375V80.9375H115.938V74.375Z" fill="#FFDA54"/>
<path d="M120.312 74.375H113.75V80.9375H120.312V74.375Z" fill="#FFDA54"/>
<path d="M124.688 74.375H118.125V80.9375H124.688V74.375Z" fill="#FFDA54"/>
<path d="M129.062 74.375H122.5V80.9375H129.062V74.375Z" fill="#FFDA54"/>
<path d="M133.438 74.375H126.875V80.9375H133.438V74.375Z" fill="#FFDA54"/>
<path d="M137.812 74.375H131.25V80.9375H137.812V74.375Z" fill="#FFDA54"/>
<path d="M142.188 74.375H135.625V80.9375H142.188V74.375Z" fill="#FFDA54"/>
<path d="M6.5625 78.75H0V85.3125H6.5625V78.75Z" fill="#FFDA54"/>
<path d="M10.9375 78.75H4.375V85.3125H10.9375V78.75Z" fill="#FFDA54"/>
<path d="M15.3125 78.75H8.75V85.3125H15.3125V78.75Z" fill="#FFDA54"/>
<path d="M19.6875 78.75H13.125V85.3125H19.6875V78.75Z" fill="#FFDA54"/>
<path d="M24.0625 78.75H17.5V85.3125H24.0625V78.75Z" fill="#FFDA54"/>
<path d="M28.4375 78.75H21.875V85.3125H28.4375V78.75Z" fill="#FFDA54"/>
<path d="M32.8125 78.75H26.25V85.3125H32.8125V78.75Z" fill="#FFDA54"/>
<path d="M37.1875 78.75H30.625V85.3125H37.1875V78.75Z" fill="#FFDA54"/>
<path d="M41.5625 78.75H35V85.3125H41.5625V78.75Z" fill="#FFDA54"/>
<path d="M45.9375 78.75H39.375V85.3125H45.9375V78.75Z" fill="#FFDA54"/>
<path d="M50.3125 78.75H43.75V85.3125H50.3125V78.75Z" fill="#1F1407"/>
<path d="M54.6875 78.75H48.125V85.3125H54.6875V78.75Z" fill="#1F1407"/>
<path d="M59.0625 78.75H52.5V85.3125H59.0625V78.75Z" fill="#1F1407"/>
<path d="M63.4375 78.75H56.875V85.3125H63.4375V78.75Z" fill="#FFDA54"/>
<path d="M67.8125 78.75H61.25V85.3125H67.8125V78.75Z" fill="#1F1407"/>
<path d="M72.1875 78.75H65.625V85.3125H72.1875V78.75Z" fill="#FEB964"/>
<path d="M76.5625 78.75H70V85.3125H76.5625V78.75Z" fill="#FEB964"/>
<path d="M80.9375 78.75H74.375V85.3125H80.9375V78.75Z" fill="#FFDA54"/>
<path d="M85.3125 78.75H78.75V85.3125H85.3125V78.75Z" fill="#FFDA54"/>
<path d="M89.6875 78.75H83.125V85.3125H89.6875V78.75Z" fill="#FEB964"/>
<path d="M94.0625 78.75H87.5V85.3125H94.0625V78.75Z" fill="#FEB964"/>
<path d="M98.4375 78.75H91.875V85.3125H98.4375V78.75Z" fill="#FFDA54"/>
<path d="M102.812 78.75H96.25V85.3125H102.812V78.75Z" fill="#FFDA54"/>
<path d="M107.188 78.75H100.625V85.3125H107.188V78.75Z" fill="#FFDA54"/>
<path d="M111.562 78.75H105V85.3125H111.562V78.75Z" fill="#1F1407"/>
<path d="M115.938 78.75H109.375V85.3125H115.938V78.75Z" fill="#FFDA54"/>
<path d="M120.312 78.75H113.75V85.3125H120.312V78.75Z" fill="#FFDA54"/>
<path d="M124.688 78.75H118.125V85.3125H124.688V78.75Z" fill="#FFDA54"/>
<path d="M129.062 78.75H122.5V85.3125H129.062V78.75Z" fill="#FFDA54"/>
<path d="M133.438 78.75H126.875V85.3125H133.438V78.75Z" fill="#FFDA54"/>
<path d="M137.812 78.75H131.25V85.3125H137.812V78.75Z" fill="#FFDA54"/>
<path d="M142.188 78.75H135.625V85.3125H142.188V78.75Z" fill="#FFDA54"/>
<path d="M6.5625 83.125H0V89.6875H6.5625V83.125Z" fill="#FFDA54"/>
<path d="M10.9375 83.125H4.375V89.6875H10.9375V83.125Z" fill="#FFDA54"/>
<path d="M15.3125 83.125H8.75V89.6875H15.3125V83.125Z" fill="#FFDA54"/>
<path d="M19.6875 83.125H13.125V89.6875H19.6875V83.125Z" fill="#FFDA54"/>
<path d="M24.0625 83.125H17.5V89.6875H24.0625V83.125Z" fill="#FFDA54"/>
<path d="M28.4375 83.125H21.875V89.6875H28.4375V83.125Z" fill="#FFDA54"/>
<path d="M32.8125 83.125H26.25V89.6875H32.8125V83.125Z" fill="#FFDA54"/>
<path d="M37.1875 83.125H30.625V89.6875H37.1875V83.125Z" fill="#FFDA54"/>
<path d="M41.5625 83.125H35V89.6875H41.5625V83.125Z" fill="#FFDA54"/>
<path d="M45.9375 83.125H39.375V89.6875H45.9375V83.125Z" fill="#FFDA54"/>
<path d="M50.3125 83.125H43.75V89.6875H50.3125V83.125Z" fill="#FFDA54"/>
<path d="M54.6875 83.125H48.125V89.6875H54.6875V83.125Z" fill="#1F1407"/>
<path d="M59.0625 83.125H52.5V89.6875H59.0625V83.125Z" fill="#FFDA54"/>
<path d="M63.4375 83.125H56.875V89.6875H63.4375V83.125Z" fill="#FFDA54"/>
<path d="M67.8125 83.125H61.25V89.6875H67.8125V83.125Z" fill="#1F1407"/>
<path d="M72.1875 83.125H65.625V89.6875H72.1875V83.125Z" fill="#1F1407"/>
<path d="M76.5625 83.125H70V89.6875H76.5625V83.125Z" fill="#1F1407"/>
<path d="M80.9375 83.125H74.375V89.6875H80.9375V83.125Z" fill="#1F1407"/>
<path d="M85.3125 83.125H78.75V89.6875H85.3125V83.125Z" fill="#1F1407"/>
<path d="M89.6875 83.125H83.125V89.6875H89.6875V83.125Z" fill="#FEB964"/>
<path d="M94.0625 83.125H87.5V89.6875H94.0625V83.125Z" fill="#FEB964"/>
<path d="M98.4375 83.125H91.875V89.6875H98.4375V83.125Z" fill="#FFDA54"/>
<path d="M102.812 83.125H96.25V89.6875H102.812V83.125Z" fill="#FFDA54"/>
<path d="M107.188 83.125H100.625V89.6875H107.188V83.125Z" fill="#FFDA54"/>
<path d="M111.562 83.125H105V89.6875H111.562V83.125Z" fill="#1F1407"/>
<path d="M115.938 83.125H109.375V89.6875H115.938V83.125Z" fill="#FFDA54"/>
<path d="M120.312 83.125H113.75V89.6875H120.312V83.125Z" fill="#FFDA54"/>
<path d="M124.688 83.125H118.125V89.6875H124.688V83.125Z" fill="#FFDA54"/>
<path d="M129.062 83.125H122.5V89.6875H129.062V83.125Z" fill="#FFDA54"/>
<path d="M133.438 83.125H126.875V89.6875H133.438V83.125Z" fill="#FFDA54"/>
<path d="M137.812 83.125H131.25V89.6875H137.812V83.125Z" fill="#FFDA54"/>
<path d="M142.188 83.125H135.625V89.6875H142.188V83.125Z" fill="#FFDA54"/>
<path d="M6.5625 87.5H0V94.0625H6.5625V87.5Z" fill="#FFDA54"/>
<path d="M10.9375 87.5H4.375V94.0625H10.9375V87.5Z" fill="#FFDA54"/>
<path d="M15.3125 87.5H8.75V94.0625H15.3125V87.5Z" fill="#FFDA54"/>
<path d="M19.6875 87.5H13.125V94.0625H19.6875V87.5Z" fill="#FFDA54"/>
<path d="M24.0625 87.5H17.5V94.0625H24.0625V87.5Z" fill="#FFDA54"/>
<path d="M28.4375 87.5H21.875V94.0625H28.4375V87.5Z" fill="#FFDA54"/>
<path d="M32.8125 87.5H26.25V94.0625H32.8125V87.5Z" fill="#FFDA54"/>
<path d="M37.1875 87.5H30.625V94.0625H37.1875V87.5Z" fill="#FFDA54"/>
<path d="M41.5625 87.5H35V94.0625H41.5625V87.5Z" fill="#FFDA54"/>
<path d="M45.9375 87.5H39.375V94.0625H45.9375V87.5Z" fill="#FFDA54"/>
<path d="M50.3125 87.5H43.75V94.0625H50.3125V87.5Z" fill="#FFDA54"/>
<path d="M54.6875 87.5H48.125V94.0625H54.6875V87.5Z" fill="#FFDA54"/>
<path d="M59.0625 87.5H52.5V94.0625H59.0625V87.5Z" fill="#FFDA54"/>
<path d="M63.4375 87.5H56.875V94.0625H63.4375V87.5Z" fill="#FFDA54"/>
<path d="M67.8125 87.5H61.25V94.0625H67.8125V87.5Z" fill="#FFDA54"/>
<path d="M72.1875 87.5H65.625V94.0625H72.1875V87.5Z" fill="#FFDA54"/>
<path d="M76.5625 87.5H70V94.0625H76.5625V87.5Z" fill="#FFDA54"/>
<path d="M80.9375 87.5H74.375V94.0625H80.9375V87.5Z" fill="#FFDA54"/>
<path d="M85.3125 87.5H78.75V94.0625H85.3125V87.5Z" fill="#1F1407"/>
<path d="M89.6875 87.5H83.125V94.0625H89.6875V87.5Z" fill="#FEB964"/>
<path d="M94.0625 87.5H87.5V94.0625H94.0625V87.5Z" fill="#FEB964"/>
<path d="M98.4375 87.5H91.875V94.0625H98.4375V87.5Z" fill="#FEB964"/>
<path d="M102.812 87.5H96.25V94.0625H102.812V87.5Z" fill="#FFDA54"/>
<path d="M107.188 87.5H100.625V94.0625H107.188V87.5Z" fill="#FFDA54"/>
<path d="M111.562 87.5H105V94.0625H111.562V87.5Z" fill="#1F1407"/>
<path d="M115.938 87.5H109.375V94.0625H115.938V87.5Z" fill="#1F1407"/>
<path d="M120.312 87.5H113.75V94.0625H120.312V87.5Z" fill="#FFDA54"/>
<path d="M124.688 87.5H118.125V94.0625H124.688V87.5Z" fill="#FFDA54"/>
<path d="M129.062 87.5H122.5V94.0625H129.062V87.5Z" fill="#FFDA54"/>
<path d="M133.438 87.5H126.875V94.0625H133.438V87.5Z" fill="#FFDA54"/>
<path d="M137.812 87.5H131.25V94.0625H137.812V87.5Z" fill="#FFDA54"/>
<path d="M142.188 87.5H135.625V94.0625H142.188V87.5Z" fill="#FFDA54"/>
<path d="M6.5625 91.875H0V98.4375H6.5625V91.875Z" fill="#FFDA54"/>
<path d="M10.9375 91.875H4.375V98.4375H10.9375V91.875Z" fill="#FFDA54"/>
<path d="M15.3125 91.875H8.75V98.4375H15.3125V91.875Z" fill="#FFDA54"/>
<path d="M19.6875 91.875H13.125V98.4375H19.6875V91.875Z" fill="#FFDA54"/>
<path d="M24.0625 91.875H17.5V98.4375H24.0625V91.875Z" fill="#FFDA54"/>
<path d="M28.4375 91.875H21.875V98.4375H28.4375V91.875Z" fill="#FFDA54"/>
<path d="M32.8125 91.875H26.25V98.4375H32.8125V91.875Z" fill="#FFDA54"/>
<path d="M37.1875 91.875H30.625V98.4375H37.1875V91.875Z" fill="#FFDA54"/>
<path d="M41.5625 91.875H35V98.4375H41.5625V91.875Z" fill="#FFDA54"/>
<path d="M45.9375 91.875H39.375V98.4375H45.9375V91.875Z" fill="#FFDA54"/>
<path d="M50.3125 91.875H43.75V98.4375H50.3125V91.875Z" fill="#FFDA54"/>
<path d="M54.6875 91.875H48.125V98.4375H54.6875V91.875Z" fill="#FFDA54"/>
<path d="M59.0625 91.875H52.5V98.4375H59.0625V91.875Z" fill="#FFDA54"/>
<path d="M63.4375 91.875H56.875V98.4375H63.4375V91.875Z" fill="#FFDA54"/>
<path d="M67.8125 91.875H61.25V98.4375H67.8125V91.875Z" fill="#FFDA54"/>
<path d="M72.1875 91.875H65.625V98.4375H72.1875V91.875Z" fill="#FFDA54"/>
<path d="M76.5625 91.875H70V98.4375H76.5625V91.875Z" fill="#FFDA54"/>
<path d="M80.9375 91.875H74.375V98.4375H80.9375V91.875Z" fill="#FFDA54"/>
<path d="M85.3125 91.875H78.75V98.4375H85.3125V91.875Z" fill="#1F1407"/>
<path d="M89.6875 91.875H83.125V98.4375H89.6875V91.875Z" fill="#FEB964"/>
<path d="M94.0625 91.875H87.5V98.4375H94.0625V91.875Z" fill="#1F1407"/>
<path d="M98.4375 91.875H91.875V98.4375H98.4375V91.875Z" fill="#FEB964"/>
<path d="M102.812 91.875H96.25V98.4375H102.812V91.875Z" fill="#FEB964"/>
<path d="M107.188 91.875H100.625V98.4375H107.188V91.875Z" fill="#FEB964"/>
<path d="M111.562 91.875H105V98.4375H111.562V91.875Z" fill="#1F1407"/>
<path d="M115.938 91.875H109.375V98.4375H115.938V91.875Z" fill="#1F1407"/>
<path d="M120.312 91.875H113.75V98.4375H120.312V91.875Z" fill="#FFDA54"/>
<path d="M124.688 91.875H118.125V98.4375H124.688V91.875Z" fill="#FFDA54"/>
<path d="M129.062 91.875H122.5V98.4375H129.062V91.875Z" fill="#FFDA54"/>
<path d="M133.438 91.875H126.875V98.4375H133.438V91.875Z" fill="#FFDA54"/>
<path d="M137.812 91.875H131.25V98.4375H137.812V91.875Z" fill="#FFDA54"/>
<path d="M142.188 91.875H135.625V98.4375H142.188V91.875Z" fill="#FFDA54"/>
<path d="M6.5625 96.25H0V102.812H6.5625V96.25Z" fill="#FFDA54"/>
<path d="M10.9375 96.25H4.375V102.812H10.9375V96.25Z" fill="#FFDA54"/>
<path d="M15.3125 96.25H8.75V102.812H15.3125V96.25Z" fill="#FFDA54"/>
<path d="M19.6875 96.25H13.125V102.812H19.6875V96.25Z" fill="#FFDA54"/>
<path d="M24.0625 96.25H17.5V102.812H24.0625V96.25Z" fill="#FFDA54"/>
<path d="M28.4375 96.25H21.875V102.812H28.4375V96.25Z" fill="#FFDA54"/>
<path d="M32.8125 96.25H26.25V102.812H32.8125V96.25Z" fill="#FFDA54"/>
<path d="M37.1875 96.25H30.625V102.812H37.1875V96.25Z" fill="#FFDA54"/>
<path d="M41.5625 96.25H35V102.812H41.5625V96.25Z" fill="#FFDA54"/>
<path d="M45.9375 96.25H39.375V102.812H45.9375V96.25Z" fill="#FFDA54"/>
<path d="M50.3125 96.25H43.75V102.812H50.3125V96.25Z" fill="#FFDA54"/>
<path d="M54.6875 96.25H48.125V102.812H54.6875V96.25Z" fill="#FFDA54"/>
<path d="M59.0625 96.25H52.5V102.812H59.0625V96.25Z" fill="#FFDA54"/>
<path d="M63.4375 96.25H56.875V102.812H63.4375V96.25Z" fill="#FFDA54"/>
<path d="M67.8125 96.25H61.25V102.812H67.8125V96.25Z" fill="#FFDA54"/>
<path d="M72.1875 96.25H65.625V102.812H72.1875V96.25Z" fill="#FFDA54"/>
<path d="M76.5625 96.25H70V102.812H76.5625V96.25Z" fill="#FFDA54"/>
<path d="M80.9375 96.25H74.375V102.812H80.9375V96.25Z" fill="#FFDA54"/>
<path d="M85.3125 96.25H78.75V102.812H85.3125V96.25Z" fill="#1F1407"/>
<path d="M89.6875 96.25H83.125V102.812H89.6875V96.25Z" fill="#FEB964"/>
<path d="M94.0625 96.25H87.5V102.812H94.0625V96.25Z" fill="#1F1407"/>
<path d="M98.4375 96.25H91.875V102.812H98.4375V96.25Z" fill="#1F1407"/>
<path d="M102.812 96.25H96.25V102.812H102.812V96.25Z" fill="#FEB964"/>
<path d="M107.188 96.25H100.625V102.812H107.188V96.25Z" fill="#FEB964"/>
<path d="M111.562 96.25H105V102.812H111.562V96.25Z" fill="#FEB964"/>
<path d="M115.938 96.25H109.375V102.812H115.938V96.25Z" fill="#1F1407"/>
<path d="M120.312 96.25H113.75V102.812H120.312V96.25Z" fill="#FFDA54"/>
<path d="M124.688 96.25H118.125V102.812H124.688V96.25Z" fill="#FFDA54"/>
<path d="M129.062 96.25H122.5V102.812H129.062V96.25Z" fill="#FFDA54"/>
<path d="M133.438 96.25H126.875V102.812H133.438V96.25Z" fill="#FFDA54"/>
<path d="M137.812 96.25H131.25V102.812H137.812V96.25Z" fill="#FFDA54"/>
<path d="M142.188 96.25H135.625V102.812H142.188V96.25Z" fill="#FFDA54"/>
<path d="M6.5625 100.625H0V107.188H6.5625V100.625Z" fill="#FFDA54"/>
<path d="M10.9375 100.625H4.375V107.188H10.9375V100.625Z" fill="#FFDA54"/>
<path d="M15.3125 100.625H8.75V107.188H15.3125V100.625Z" fill="#FFDA54"/>
<path d="M19.6875 100.625H13.125V107.188H19.6875V100.625Z" fill="#FFDA54"/>
<path d="M24.0625 100.625H17.5V107.188H24.0625V100.625Z" fill="#FFDA54"/>
<path d="M28.4375 100.625H21.875V107.188H28.4375V100.625Z" fill="#FFDA54"/>
<path d="M32.8125 100.625H26.25V107.188H32.8125V100.625Z" fill="#FFDA54"/>
<path d="M37.1875 100.625H30.625V107.188H37.1875V100.625Z" fill="#FFDA54"/>
<path d="M41.5625 100.625H35V107.188H41.5625V100.625Z" fill="#FFDA54"/>
<path d="M45.9375 100.625H39.375V107.188H45.9375V100.625Z" fill="#FFDA54"/>
<path d="M50.3125 100.625H43.75V107.188H50.3125V100.625Z" fill="#FFDA54"/>
<path d="M54.6875 100.625H48.125V107.188H54.6875V100.625Z" fill="#FFDA54"/>
<path d="M59.0625 100.625H52.5V107.188H59.0625V100.625Z" fill="#FFDA54"/>
<path d="M63.4375 100.625H56.875V107.188H63.4375V100.625Z" fill="#FFDA54"/>
<path d="M67.8125 100.625H61.25V107.188H67.8125V100.625Z" fill="#FFDA54"/>
<path d="M72.1875 100.625H65.625V107.188H72.1875V100.625Z" fill="#FFDA54"/>
<path d="M76.5625 100.625H70V107.188H76.5625V100.625Z" fill="#FFDA54"/>
<path d="M80.9375 100.625H74.375V107.188H80.9375V100.625Z" fill="#FFDA54"/>
<path d="M85.3125 100.625H78.75V107.188H85.3125V100.625Z" fill="#1F1407"/>
<path d="M89.6875 100.625H83.125V107.188H89.6875V100.625Z" fill="#FEB964"/>
<path d="M94.0625 100.625H87.5V107.188H94.0625V100.625Z" fill="#1F1407"/>
<path d="M98.4375 100.625H91.875V107.188H98.4375V100.625Z" fill="#1F1407"/>
<path d="M102.812 100.625H96.25V107.188H102.812V100.625Z" fill="#1F1407"/>
<path d="M107.188 100.625H100.625V107.188H107.188V100.625Z" fill="#FEB964"/>
<path d="M111.562 100.625H105V107.188H111.562V100.625Z" fill="#FEB964"/>
<path d="M115.938 100.625H109.375V107.188H115.938V100.625Z" fill="#1F1407"/>
<path d="M120.312 100.625H113.75V107.188H120.312V100.625Z" fill="#FFDA54"/>
<path d="M124.688 100.625H118.125V107.188H124.688V100.625Z" fill="#FFDA54"/>
<path d="M129.062 100.625H122.5V107.188H129.062V100.625Z" fill="#FFDA54"/>
<path d="M133.438 100.625H126.875V107.188H133.438V100.625Z" fill="#FFDA54"/>
<path d="M137.812 100.625H131.25V107.188H137.812V100.625Z" fill="#FFDA54"/>
<path d="M142.188 100.625H135.625V107.188H142.188V100.625Z" fill="#FFDA54"/>
<path d="M6.5625 105H0V111.562H6.5625V105Z" fill="#FFDA54"/>
<path d="M10.9375 105H4.375V111.562H10.9375V105Z" fill="#FFDA54"/>
<path d="M15.3125 105H8.75V111.562H15.3125V105Z" fill="#FFDA54"/>
<path d="M19.6875 105H13.125V111.562H19.6875V105Z" fill="#FFDA54"/>
<path d="M24.0625 105H17.5V111.562H24.0625V105Z" fill="#FFDA54"/>
<path d="M28.4375 105H21.875V111.562H28.4375V105Z" fill="#FFDA54"/>
<path d="M32.8125 105H26.25V111.562H32.8125V105Z" fill="#FFDA54"/>
<path d="M37.1875 105H30.625V111.562H37.1875V105Z" fill="#FFDA54"/>
<path d="M41.5625 105H35V111.562H41.5625V105Z" fill="#FFDA54"/>
<path d="M45.9375 105H39.375V111.562H45.9375V105Z" fill="#FFDA54"/>
<path d="M50.3125 105H43.75V111.562H50.3125V105Z" fill="#FFDA54"/>
<path d="M54.6875 105H48.125V111.562H54.6875V105Z" fill="#FFDA54"/>
<path d="M59.0625 105H52.5V111.562H59.0625V105Z" fill="#FFDA54"/>
<path d="M63.4375 105H56.875V111.562H63.4375V105Z" fill="#FFDA54"/>
<path d="M67.8125 105H61.25V111.562H67.8125V105Z" fill="#FFDA54"/>
<path d="M72.1875 105H65.625V111.562H72.1875V105Z" fill="#FFDA54"/>
<path d="M76.5625 105H70V111.562H76.5625V105Z" fill="#FFDA54"/>
<path d="M80.9375 105H74.375V111.562H80.9375V105Z" fill="#FFDA54"/>
<path d="M85.3125 105H78.75V111.562H85.3125V105Z" fill="#1F1407"/>
<path d="M89.6875 105H83.125V111.562H89.6875V105Z" fill="#1F1407"/>
<path d="M94.0625 105H87.5V111.562H94.0625V105Z" fill="#1F1407"/>
<path d="M98.4375 105H91.875V111.562H98.4375V105Z" fill="#FFDA54"/>
<path d="M102.812 105H96.25V111.562H102.812V105Z" fill="#1F1407"/>
<path d="M107.188 105H100.625V111.562H107.188V105Z" fill="#1F1407"/>
<path d="M111.562 105H105V111.562H111.562V105Z" fill="#FEB964"/>
<path d="M115.938 105H109.375V111.562H115.938V105Z" fill="#1F1407"/>
<path d="M120.312 105H113.75V111.562H120.312V105Z" fill="#FFDA54"/>
<path d="M124.688 105H118.125V111.562H124.688V105Z" fill="#FFDA54"/>
<path d="M129.062 105H122.5V111.562H129.062V105Z" fill="#FFDA54"/>
<path d="M133.438 105H126.875V111.562H133.438V105Z" fill="#FFDA54"/>
<path d="M137.812 105H131.25V111.562H137.812V105Z" fill="#FFDA54"/>
<path d="M142.188 105H135.625V111.562H142.188V105Z" fill="#FFDA54"/>
<path d="M6.5625 109.375H0V115.938H6.5625V109.375Z" fill="#FFDA54"/>
<path d="M10.9375 109.375H4.375V115.938H10.9375V109.375Z" fill="#FFDA54"/>
<path d="M15.3125 109.375H8.75V115.938H15.3125V109.375Z" fill="#FFDA54"/>
<path d="M19.6875 109.375H13.125V115.938H19.6875V109.375Z" fill="#FFDA54"/>
<path d="M24.0625 109.375H17.5V115.938H24.0625V109.375Z" fill="#FFDA54"/>
<path d="M28.4375 109.375H21.875V115.938H28.4375V109.375Z" fill="#FFDA54"/>
<path d="M32.8125 109.375H26.25V115.938H32.8125V109.375Z" fill="#FFDA54"/>
<path d="M37.1875 109.375H30.625V115.938H37.1875V109.375Z" fill="#FFDA54"/>
<path d="M41.5625 109.375H35V115.938H41.5625V109.375Z" fill="#FFDA54"/>
<path d="M45.9375 109.375H39.375V115.938H45.9375V109.375Z" fill="#FFDA54"/>
<path d="M50.3125 109.375H43.75V115.938H50.3125V109.375Z" fill="#FFDA54"/>
<path d="M54.6875 109.375H48.125V115.938H54.6875V109.375Z" fill="#FFDA54"/>
<path d="M59.0625 109.375H52.5V115.938H59.0625V109.375Z" fill="#FFDA54"/>
<path d="M63.4375 109.375H56.875V115.938H63.4375V109.375Z" fill="#FFDA54"/>
<path d="M67.8125 109.375H61.25V115.938H67.8125V109.375Z" fill="#FFDA54"/>
<path d="M72.1875 109.375H65.625V115.938H72.1875V109.375Z" fill="#FFDA54"/>
<path d="M76.5625 109.375H70V115.938H76.5625V109.375Z" fill="#FFDA54"/>
<path d="M80.9375 109.375H74.375V115.938H80.9375V109.375Z" fill="#FFDA54"/>
<path d="M85.3125 109.375H78.75V115.938H85.3125V109.375Z" fill="#FFDA54"/>
<path d="M89.6875 109.375H83.125V115.938H89.6875V109.375Z" fill="#FFDA54"/>
<path d="M94.0625 109.375H87.5V115.938H94.0625V109.375Z" fill="#FFDA54"/>
<path d="M98.4375 109.375H91.875V115.938H98.4375V109.375Z" fill="#FFDA54"/>
<path d="M102.812 109.375H96.25V115.938H102.812V109.375Z" fill="#FFDA54"/>
<path d="M107.188 109.375H100.625V115.938H107.188V109.375Z" fill="#1F1407"/>
<path d="M111.562 109.375H105V115.938H111.562V109.375Z" fill="#FEB964"/>
<path d="M115.938 109.375H109.375V115.938H115.938V109.375Z" fill="#1F1407"/>
<path d="M120.312 109.375H113.75V115.938H120.312V109.375Z" fill="#FFDA54"/>
<path d="M124.688 109.375H118.125V115.938H124.688V109.375Z" fill="#FFDA54"/>
<path d="M129.062 109.375H122.5V115.938H129.062V109.375Z" fill="#FFDA54"/>
<path d="M133.438 109.375H126.875V115.938H133.438V109.375Z" fill="#FFDA54"/>
<path d="M137.812 109.375H131.25V115.938H137.812V109.375Z" fill="#FFDA54"/>
<path d="M142.188 109.375H135.625V115.938H142.188V109.375Z" fill="#FFDA54"/>
<path d="M6.5625 113.75H0V120.312H6.5625V113.75Z" fill="#FFDA54"/>
<path d="M10.9375 113.75H4.375V120.312H10.9375V113.75Z" fill="#FFDA54"/>
<path d="M15.3125 113.75H8.75V120.312H15.3125V113.75Z" fill="#FFDA54"/>
<path d="M19.6875 113.75H13.125V120.312H19.6875V113.75Z" fill="#FFDA54"/>
<path d="M24.0625 113.75H17.5V120.312H24.0625V113.75Z" fill="#FFDA54"/>
<path d="M28.4375 113.75H21.875V120.312H28.4375V113.75Z" fill="#FFDA54"/>
<path d="M32.8125 113.75H26.25V120.312H32.8125V113.75Z" fill="#FFDA54"/>
<path d="M37.1875 113.75H30.625V120.312H37.1875V113.75Z" fill="#FFDA54"/>
<path d="M41.5625 113.75H35V120.312H41.5625V113.75Z" fill="#FFDA54"/>
<path d="M45.9375 113.75H39.375V120.312H45.9375V113.75Z" fill="#FFDA54"/>
<path d="M50.3125 113.75H43.75V120.312H50.3125V113.75Z" fill="#FFDA54"/>
<path d="M54.6875 113.75H48.125V120.312H54.6875V113.75Z" fill="#FFDA54"/>
<path d="M59.0625 113.75H52.5V120.312H59.0625V113.75Z" fill="#FFDA54"/>
<path d="M63.4375 113.75H56.875V120.312H63.4375V113.75Z" fill="#FFDA54"/>
<path d="M67.8125 113.75H61.25V120.312H67.8125V113.75Z" fill="#FFDA54"/>
<path d="M72.1875 113.75H65.625V120.312H72.1875V113.75Z" fill="#FFDA54"/>
<path d="M76.5625 113.75H70V120.312H76.5625V113.75Z" fill="#FFDA54"/>
<path d="M80.9375 113.75H74.375V120.312H80.9375V113.75Z" fill="#FFDA54"/>
<path d="M85.3125 113.75H78.75V120.312H85.3125V113.75Z" fill="#FFDA54"/>
<path d="M89.6875 113.75H83.125V120.312H89.6875V113.75Z" fill="#FFDA54"/>
<path d="M94.0625 113.75H87.5V120.312H94.0625V113.75Z" fill="#FFDA54"/>
<path d="M98.4375 113.75H91.875V120.312H98.4375V113.75Z" fill="#FFDA54"/>
<path d="M102.812 113.75H96.25V120.312H102.812V113.75Z" fill="#FFDA54"/>
<path d="M107.188 113.75H100.625V120.312H107.188V113.75Z" fill="#1F1407"/>
<path d="M111.562 113.75H105V120.312H111.562V113.75Z" fill="#FEB964"/>
<path d="M115.938 113.75H109.375V120.312H115.938V113.75Z" fill="#1F1407"/>
<path d="M120.312 113.75H113.75V120.312H120.312V113.75Z" fill="#FFDA54"/>
<path d="M124.688 113.75H118.125V120.312H124.688V113.75Z" fill="#FFDA54"/>
<path d="M129.062 113.75H122.5V120.312H129.062V113.75Z" fill="#FFDA54"/>
<path d="M133.438 113.75H126.875V120.312H133.438V113.75Z" fill="#FFDA54"/>
<path d="M137.812 113.75H131.25V120.312H137.812V113.75Z" fill="#FFDA54"/>
<path d="M142.188 113.75H135.625V120.312H142.188V113.75Z" fill="#FFDA54"/>
<path d="M6.5625 118.125H0V124.688H6.5625V118.125Z" fill="#FFDA54"/>
<path d="M10.9375 118.125H4.375V124.688H10.9375V118.125Z" fill="#FFDA54"/>
<path d="M15.3125 118.125H8.75V124.688H15.3125V118.125Z" fill="#FFDA54"/>
<path d="M19.6875 118.125H13.125V124.688H19.6875V118.125Z" fill="#FFDA54"/>
<path d="M24.0625 118.125H17.5V124.688H24.0625V118.125Z" fill="#FFDA54"/>
<path d="M28.4375 118.125H21.875V124.688H28.4375V118.125Z" fill="#FFDA54"/>
<path d="M32.8125 118.125H26.25V124.688H32.8125V118.125Z" fill="#FFDA54"/>
<path d="M37.1875 118.125H30.625V124.688H37.1875V118.125Z" fill="#FFDA54"/>
<path d="M41.5625 118.125H35V124.688H41.5625V118.125Z" fill="#FFDA54"/>
<path d="M45.9375 118.125H39.375V124.688H45.9375V118.125Z" fill="#FFDA54"/>
<path d="M50.3125 118.125H43.75V124.688H50.3125V118.125Z" fill="#FFDA54"/>
<path d="M54.6875 118.125H48.125V124.688H54.6875V118.125Z" fill="#FFDA54"/>
<path d="M59.0625 118.125H52.5V124.688H59.0625V118.125Z" fill="#FFDA54"/>
<path d="M63.4375 118.125H56.875V124.688H63.4375V118.125Z" fill="#FFDA54"/>
<path d="M67.8125 118.125H61.25V124.688H67.8125V118.125Z" fill="#FFDA54"/>
<path d="M72.1875 118.125H65.625V124.688H72.1875V118.125Z" fill="#FFDA54"/>
<path d="M76.5625 118.125H70V124.688H76.5625V118.125Z" fill="#FFDA54"/>
<path d="M80.9375 118.125H74.375V124.688H80.9375V118.125Z" fill="#FFDA54"/>
<path d="M85.3125 118.125H78.75V124.688H85.3125V118.125Z" fill="#FFDA54"/>
<path d="M89.6875 118.125H83.125V124.688H89.6875V118.125Z" fill="#FFDA54"/>
<path d="M94.0625 118.125H87.5V124.688H94.0625V118.125Z" fill="#FFDA54"/>
<path d="M98.4375 118.125H91.875V124.688H98.4375V118.125Z" fill="#FFDA54"/>
<path d="M102.812 118.125H96.25V124.688H102.812V118.125Z" fill="#FFDA54"/>
<path d="M107.188 118.125H100.625V124.688H107.188V118.125Z" fill="#1F1407"/>
<path d="M111.562 118.125H105V124.688H111.562V118.125Z" fill="#1F1407"/>
<path d="M115.938 118.125H109.375V124.688H115.938V118.125Z" fill="#1F1407"/>
<path d="M120.312 118.125H113.75V124.688H120.312V118.125Z" fill="#FFDA54"/>
<path d="M124.688 118.125H118.125V124.688H124.688V118.125Z" fill="#FFDA54"/>
<path d="M129.062 118.125H122.5V124.688H129.062V118.125Z" fill="#FFDA54"/>
<path d="M133.438 118.125H126.875V124.688H133.438V118.125Z" fill="#FFDA54"/>
<path d="M137.812 118.125H131.25V124.688H137.812V118.125Z" fill="#FFDA54"/>
<path d="M142.188 118.125H135.625V124.688H142.188V118.125Z" fill="#FFDA54"/>
<path d="M6.5625 122.5H0V129.062H6.5625V122.5Z" fill="#FFDA54"/>
<path d="M10.9375 122.5H4.375V129.062H10.9375V122.5Z" fill="#FFDA54"/>
<path d="M15.3125 122.5H8.75V129.062H15.3125V122.5Z" fill="#FFDA54"/>
<path d="M19.6875 122.5H13.125V129.062H19.6875V122.5Z" fill="#FFDA54"/>
<path d="M24.0625 122.5H17.5V129.062H24.0625V122.5Z" fill="#FFDA54"/>
<path d="M28.4375 122.5H21.875V129.062H28.4375V122.5Z" fill="#FFDA54"/>
<path d="M32.8125 122.5H26.25V129.062H32.8125V122.5Z" fill="#FFDA54"/>
<path d="M37.1875 122.5H30.625V129.062H37.1875V122.5Z" fill="#FFDA54"/>
<path d="M41.5625 122.5H35V129.062H41.5625V122.5Z" fill="#FFDA54"/>
<path d="M45.9375 122.5H39.375V129.062H45.9375V122.5Z" fill="#FFDA54"/>
<path d="M50.3125 122.5H43.75V129.062H50.3125V122.5Z" fill="#FFDA54"/>
<path d="M54.6875 122.5H48.125V129.062H54.6875V122.5Z" fill="#FFDA54"/>
<path d="M59.0625 122.5H52.5V129.062H59.0625V122.5Z" fill="#FFDA54"/>
<path d="M63.4375 122.5H56.875V129.062H63.4375V122.5Z" fill="#FFDA54"/>
<path d="M67.8125 122.5H61.25V129.062H67.8125V122.5Z" fill="#FFDA54"/>
<path d="M72.1875 122.5H65.625V129.062H72.1875V122.5Z" fill="#FFDA54"/>
<path d="M76.5625 122.5H70V129.062H76.5625V122.5Z" fill="#FFDA54"/>
<path d="M80.9375 122.5H74.375V129.062H80.9375V122.5Z" fill="#FFDA54"/>
<path d="M85.3125 122.5H78.75V129.062H85.3125V122.5Z" fill="#FFDA54"/>
<path d="M89.6875 122.5H83.125V129.062H89.6875V122.5Z" fill="#FFDA54"/>
<path d="M94.0625 122.5H87.5V129.062H94.0625V122.5Z" fill="#FFDA54"/>
<path d="M98.4375 122.5H91.875V129.062H98.4375V122.5Z" fill="#FFDA54"/>
<path d="M102.812 122.5H96.25V129.062H102.812V122.5Z" fill="#FFDA54"/>
<path d="M107.188 122.5H100.625V129.062H107.188V122.5Z" fill="#FFDA54"/>
<path d="M111.562 122.5H105V129.062H111.562V122.5Z" fill="#1F1407"/>
<path d="M115.938 122.5H109.375V129.062H115.938V122.5Z" fill="#FFDA54"/>
<path d="M120.312 122.5H113.75V129.062H120.312V122.5Z" fill="#FFDA54"/>
<path d="M124.688 122.5H118.125V129.062H124.688V122.5Z" fill="#FFDA54"/>
<path d="M129.062 122.5H122.5V129.062H129.062V122.5Z" fill="#FFDA54"/>
<path d="M133.438 122.5H126.875V129.062H133.438V122.5Z" fill="#FFDA54"/>
<path d="M137.812 122.5H131.25V129.062H137.812V122.5Z" fill="#FFDA54"/>
<path d="M142.188 122.5H135.625V129.062H142.188V122.5Z" fill="#FFDA54"/>
<path d="M6.5625 126.875H0V133.438H6.5625V126.875Z" fill="#FFDA54"/>
<path d="M10.9375 126.875H4.375V133.438H10.9375V126.875Z" fill="#FFDA54"/>
<path d="M15.3125 126.875H8.75V133.438H15.3125V126.875Z" fill="#FFDA54"/>
<path d="M19.6875 126.875H13.125V133.438H19.6875V126.875Z" fill="#FFDA54"/>
<path d="M24.0625 126.875H17.5V133.438H24.0625V126.875Z" fill="#FFDA54"/>
<path d="M28.4375 126.875H21.875V133.438H28.4375V126.875Z" fill="#FFDA54"/>
<path d="M32.8125 126.875H26.25V133.438H32.8125V126.875Z" fill="#FFDA54"/>
<path d="M37.1875 126.875H30.625V133.438H37.1875V126.875Z" fill="#FFDA54"/>
<path d="M41.5625 126.875H35V133.438H41.5625V126.875Z" fill="#FFDA54"/>
<path d="M45.9375 126.875H39.375V133.438H45.9375V126.875Z" fill="#FFDA54"/>
<path d="M50.3125 126.875H43.75V133.438H50.3125V126.875Z" fill="#FFDA54"/>
<path d="M54.6875 126.875H48.125V133.438H54.6875V126.875Z" fill="#FFDA54"/>
<path d="M59.0625 126.875H52.5V133.438H59.0625V126.875Z" fill="#FFDA54"/>
<path d="M63.4375 126.875H56.875V133.438H63.4375V126.875Z" fill="#FFDA54"/>
<path d="M67.8125 126.875H61.25V133.438H67.8125V126.875Z" fill="#FFDA54"/>
<path d="M72.1875 126.875H65.625V133.438H72.1875V126.875Z" fill="#FFDA54"/>
<path d="M76.5625 126.875H70V133.438H76.5625V126.875Z" fill="#FFDA54"/>
<path d="M80.9375 126.875H74.375V133.438H80.9375V126.875Z" fill="#FFDA54"/>
<path d="M85.3125 126.875H78.75V133.438H85.3125V126.875Z" fill="#FFDA54"/>
<path d="M89.6875 126.875H83.125V133.438H89.6875V126.875Z" fill="#FFDA54"/>
<path d="M94.0625 126.875H87.5V133.438H94.0625V126.875Z" fill="#FFDA54"/>
<path d="M98.4375 126.875H91.875V133.438H98.4375V126.875Z" fill="#FFDA54"/>
<path d="M102.812 126.875H96.25V133.438H102.812V126.875Z" fill="#FFDA54"/>
<path d="M107.188 126.875H100.625V133.438H107.188V126.875Z" fill="#FFDA54"/>
<path d="M111.562 126.875H105V133.438H111.562V126.875Z" fill="#FFDA54"/>
<path d="M115.938 126.875H109.375V133.438H115.938V126.875Z" fill="#FFDA54"/>
<path d="M120.312 126.875H113.75V133.438H120.312V126.875Z" fill="#FFDA54"/>
<path d="M124.688 126.875H118.125V133.438H124.688V126.875Z" fill="#FFDA54"/>
<path d="M129.062 126.875H122.5V133.438H129.062V126.875Z" fill="#FFDA54"/>
<path d="M133.438 126.875H126.875V133.438H133.438V126.875Z" fill="#FFDA54"/>
<path d="M137.812 126.875H131.25V133.438H137.812V126.875Z" fill="#FFDA54"/>
<path d="M142.188 126.875H135.625V133.438H142.188V126.875Z" fill="#FFDA54"/>
<path d="M6.5625 131.25H0V137.812H6.5625V131.25Z" fill="#FFDA54"/>
<path d="M10.9375 131.25H4.375V137.812H10.9375V131.25Z" fill="#FFDA54"/>
<path d="M15.3125 131.25H8.75V137.812H15.3125V131.25Z" fill="#FFDA54"/>
<path d="M19.6875 131.25H13.125V137.812H19.6875V131.25Z" fill="#FFDA54"/>
<path d="M24.0625 131.25H17.5V137.812H24.0625V131.25Z" fill="#FFDA54"/>
<path d="M28.4375 131.25H21.875V137.812H28.4375V131.25Z" fill="#FFDA54"/>
<path d="M32.8125 131.25H26.25V137.812H32.8125V131.25Z" fill="#FFDA54"/>
<path d="M37.1875 131.25H30.625V137.812H37.1875V131.25Z" fill="#FFDA54"/>
<path d="M41.5625 131.25H35V137.812H41.5625V131.25Z" fill="#FFDA54"/>
<path d="M45.9375 131.25H39.375V137.812H45.9375V131.25Z" fill="#FFDA54"/>
<path d="M50.3125 131.25H43.75V137.812H50.3125V131.25Z" fill="#FFDA54"/>
<path d="M54.6875 131.25H48.125V137.812H54.6875V131.25Z" fill="#FFDA54"/>
<path d="M59.0625 131.25H52.5V137.812H59.0625V131.25Z" fill="#FFDA54"/>
<path d="M63.4375 131.25H56.875V137.812H63.4375V131.25Z" fill="#FFDA54"/>
<path d="M67.8125 131.25H61.25V137.812H67.8125V131.25Z" fill="#FFDA54"/>
<path d="M72.1875 131.25H65.625V137.812H72.1875V131.25Z" fill="#FFDA54"/>
<path d="M76.5625 131.25H70V137.812H76.5625V131.25Z" fill="#FFDA54"/>
<path d="M80.9375 131.25H74.375V137.812H80.9375V131.25Z" fill="#FFDA54"/>
<path d="M85.3125 131.25H78.75V137.812H85.3125V131.25Z" fill="#FFDA54"/>
<path d="M89.6875 131.25H83.125V137.812H89.6875V131.25Z" fill="#FFDA54"/>
<path d="M94.0625 131.25H87.5V137.812H94.0625V131.25Z" fill="#FFDA54"/>
<path d="M98.4375 131.25H91.875V137.812H98.4375V131.25Z" fill="#FFDA54"/>
<path d="M102.812 131.25H96.25V137.812H102.812V131.25Z" fill="#FFDA54"/>
<path d="M107.188 131.25H100.625V137.812H107.188V131.25Z" fill="#FFDA54"/>
<path d="M111.562 131.25H105V137.812H111.562V131.25Z" fill="#FFDA54"/>
<path d="M115.938 131.25H109.375V137.812H115.938V131.25Z" fill="#FFDA54"/>
<path d="M120.312 131.25H113.75V137.812H120.312V131.25Z" fill="#FFDA54"/>
<path d="M124.688 131.25H118.125V137.812H124.688V131.25Z" fill="#FFDA54"/>
<path d="M129.062 131.25H122.5V137.812H129.062V131.25Z" fill="#FFDA54"/>
<path d="M133.438 131.25H126.875V137.812H133.438V131.25Z" fill="#FFDA54"/>
<path d="M137.812 131.25H131.25V137.812H137.812V131.25Z" fill="#FFDA54"/>
<path d="M142.188 131.25H135.625V137.812H142.188V131.25Z" fill="#FFDA54"/>
<path d="M6.5625 135.625H0V142.188H6.5625V135.625Z" fill="#FFDA54"/>
<path d="M10.9375 135.625H4.375V142.188H10.9375V135.625Z" fill="#FFDA54"/>
<path d="M15.3125 135.625H8.75V142.188H15.3125V135.625Z" fill="#FFDA54"/>
<path d="M19.6875 135.625H13.125V142.188H19.6875V135.625Z" fill="#FFDA54"/>
<path d="M24.0625 135.625H17.5V142.188H24.0625V135.625Z" fill="#FFDA54"/>
<path d="M28.4375 135.625H21.875V142.188H28.4375V135.625Z" fill="#FFDA54"/>
<path d="M32.8125 135.625H26.25V142.188H32.8125V135.625Z" fill="#FFDA54"/>
<path d="M37.1875 135.625H30.625V142.188H37.1875V135.625Z" fill="#FFDA54"/>
<path d="M41.5625 135.625H35V142.188H41.5625V135.625Z" fill="#FFDA54"/>
<path d="M45.9375 135.625H39.375V142.188H45.9375V135.625Z" fill="#FFDA54"/>
<path d="M50.3125 135.625H43.75V142.188H50.3125V135.625Z" fill="#FFDA54"/>
<path d="M54.6875 135.625H48.125V142.188H54.6875V135.625Z" fill="#FFDA54"/>
<path d="M59.0625 135.625H52.5V142.188H59.0625V135.625Z" fill="#FFDA54"/>
<path d="M63.4375 135.625H56.875V142.188H63.4375V135.625Z" fill="#FFDA54"/>
<path d="M67.8125 135.625H61.25V142.188H67.8125V135.625Z" fill="#FFDA54"/>
<path d="M72.1875 135.625H65.625V142.188H72.1875V135.625Z" fill="#FFDA54"/>
<path d="M76.5625 135.625H70V142.188H76.5625V135.625Z" fill="#FFDA54"/>
<path d="M80.9375 135.625H74.375V142.188H80.9375V135.625Z" fill="#FFDA54"/>
<path d="M85.3125 135.625H78.75V142.188H85.3125V135.625Z" fill="#FFDA54"/>
<path d="M89.6875 135.625H83.125V142.188H89.6875V135.625Z" fill="#FFDA54"/>
<path d="M94.0625 135.625H87.5V142.188H94.0625V135.625Z" fill="#FFDA54"/>
<path d="M98.4375 135.625H91.875V142.188H98.4375V135.625Z" fill="#FFDA54"/>
<path d="M102.812 135.625H96.25V142.188H102.812V135.625Z" fill="#FFDA54"/>
<path d="M107.188 135.625H100.625V142.188H107.188V135.625Z" fill="#FFDA54"/>
<path d="M111.562 135.625H105V142.188H111.562V135.625Z" fill="#FFDA54"/>
<path d="M115.938 135.625H109.375V142.188H115.938V135.625Z" fill="#FFDA54"/>
<path d="M120.312 135.625H113.75V142.188H120.312V135.625Z" fill="#FFDA54"/>
<path d="M124.688 135.625H118.125V142.188H124.688V135.625Z" fill="#FFDA54"/>
<path d="M129.062 135.625H122.5V142.188H129.062V135.625Z" fill="#FFDA54"/>
<path d="M133.438 135.625H126.875V142.188H133.438V135.625Z" fill="#FFDA54"/>
<path d="M137.812 135.625H131.25V142.188H137.812V135.625Z" fill="#FFDA54"/>
<path d="M142.188 135.625H135.625V142.188H142.188V135.625Z" fill="#FFDA54"/>
</g>
<defs>
<clipPath id="clip0_153_45304">
<rect width="140" height="140" fill="white"/>
</clipPath>
</defs>
</svg>
